<svg width="440" height="184" viewBox="0 0 440 184" fill="none" xmlns="http://www.w3.org/2000/svg">
<path fill-rule="evenodd" clip-rule="evenodd" d="M326 82.2145V113.401C326 113.954 326.374 114.437 326.91 114.576L351.391 120.96C352.042 121.13 352.707 120.741 352.877 120.093C352.904 119.992 352.917 119.889 352.917 119.785V107.26C352.917 106.589 353.462 106.045 354.135 106.045C354.243 106.045 354.351 106.06 354.456 106.088L372.461 110.998C373.11 111.175 373.779 110.794 373.957 110.147C374.075 109.715 373.946 109.253 373.62 108.945L346 82.8385C345.512 82.3771 344.741 82.3977 344.278 82.8845C344.064 83.1101 343.945 83.4091 343.945 83.7199V88.6604C343.945 89.3311 343.399 89.8747 342.727 89.8747C342.506 89.8747 342.29 89.815 342.101 89.7018L327.844 81.1732C327.267 80.8282 326.519 81.0147 326.173 81.5899C326.06 81.7786 326 81.9945 326 82.2145Z" fill="url(#paint0_radial)"/>
<path d="M116.461 127C119.139 127 121.61 126.467 123.876 125.401C126.142 124.335 128.099 122.874 129.747 121.017C131.395 119.16 132.683 116.977 133.61 114.467C134.537 111.957 135 109.258 135 106.37C135 103.275 134.485 100.679 133.455 98.5817C132.425 96.4842 131.138 94.765 129.593 93.4241C128.048 92.0831 126.365 91.1032 124.546 90.4842C122.726 89.8653 121.027 89.5559 119.448 89.5559V88.937C121.096 88.8682 122.692 88.5244 124.237 87.9054C125.782 87.2865 127.155 86.3582 128.357 85.1203C129.558 83.8825 130.52 82.3181 131.241 80.4269C131.962 78.5358 132.322 76.2149 132.322 73.4642C132.322 70.7135 131.893 68.1862 131.035 65.8825C130.176 63.5788 128.923 61.6361 127.275 60.0544C125.627 58.4728 123.619 57.235 121.25 56.341C118.881 55.447 116.22 55 113.268 55H80V127H116.461ZM110.05 85H93V67H110.05C112.561 67 114.513 67.6536 115.908 68.9609C117.303 70.2682 118 72.095 118 74.4413V77.5587C118 79.905 117.303 81.7318 115.908 83.0391C114.513 84.3464 112.561 85 110.05 85ZM112.818 115H94V96H112.818C115.409 96 117.42 96.6774 118.852 98.0321C120.284 99.3868 121 101.317 121 103.824V107.278C121 109.784 120.284 111.698 118.852 113.019C117.42 114.34 115.409 115 112.818 115ZM162.948 128C166.797 128 170.268 127.35 173.361 126.051C176.454 124.752 179.082 122.872 181.247 120.41C183.412 117.949 185.079 114.991 186.247 111.538C187.416 108.085 188 104.205 188 99.8974C188 95.5897 187.416 91.7265 186.247 88.3077C185.079 84.8889 183.412 81.9658 181.247 79.5385C179.082 77.1111 176.454 75.2479 173.361 73.9487C170.268 72.6496 166.797 72 162.948 72C159.1 72 155.646 72.6496 152.588 73.9487C149.529 75.2479 146.918 77.1111 144.753 79.5385C142.588 81.9658 140.921 84.8889 139.753 88.3077C138.584 91.7265 138 95.5897 138 99.8974C138 104.205 138.584 108.085 139.753 111.538C140.921 114.991 142.588 117.949 144.753 120.41C146.918 122.872 149.529 124.752 152.588 126.051C155.646 127.35 159.1 128 162.948 128ZM162.949 117C159.57 117 156.9 115.936 154.94 113.809C152.98 111.681 152 108.559 152 104.441V94.4559C152 90.4069 152.98 87.3186 154.94 85.1912C156.9 83.0637 159.57 82 162.949 82C166.396 82 169.1 83.0637 171.06 85.1912C173.02 87.3186 174 90.4069 174 94.4559V104.441C174 108.559 173.02 111.681 171.06 113.809C169.1 115.936 166.396 117 162.949 117ZM215.948 128C219.797 128 223.268 127.35 226.361 126.051C229.454 124.752 232.082 122.872 234.247 120.41C236.412 117.949 238.079 114.991 239.247 111.538C240.416 108.085 241 104.205 241 99.8974C241 95.5897 240.416 91.7265 239.247 88.3077C238.079 84.8889 236.412 81.9658 234.247 79.5385C232.082 77.1111 229.454 75.2479 226.361 73.9487C223.268 72.6496 219.797 72 215.948 72C212.1 72 208.646 72.6496 205.588 73.9487C202.529 75.2479 199.918 77.1111 197.753 79.5385C195.588 81.9658 193.921 84.8889 192.753 88.3077C191.584 91.7265 191 95.5897 191 99.8974C191 104.205 191.584 108.085 192.753 111.538C193.921 114.991 195.588 117.949 197.753 120.41C199.918 122.872 202.529 124.752 205.588 126.051C208.646 127.35 212.1 128 215.948 128ZM215.949 117C212.57 117 209.9 115.936 207.94 113.809C205.98 111.681 205 108.559 205 104.441V94.4559C205 90.4069 205.98 87.3186 207.94 85.1912C209.9 83.0637 212.57 82 215.949 82C219.396 82 222.1 83.0637 224.06 85.1912C226.02 87.3186 227 90.4069 227 94.4559V104.441C227 108.559 226.02 111.681 224.06 113.809C222.1 115.936 219.396 117 215.949 117ZM258.212 127V91.4663C258.212 90.0243 258.504 88.7712 259.089 87.7069C259.674 86.6426 260.431 85.75 261.36 85.029C262.289 84.3081 263.355 83.7587 264.56 83.3811C265.764 83.0034 266.985 82.8146 268.224 82.8146C274.004 82.8146 276.894 86.6598 276.894 94.3502V127H290.106V91.4663C290.106 90.0243 290.381 88.7712 290.932 87.7069C291.482 86.6426 292.222 85.75 293.151 85.029C294.08 84.3081 295.146 83.7587 296.351 83.3811C297.555 83.0034 298.811 82.8146 300.118 82.8146C305.898 82.8146 308.788 86.6598 308.788 94.3502V127H322V93.0112C322 86.2821 320.572 81.098 317.716 77.4588C314.861 73.8196 310.784 72 305.485 72C301.15 72 297.555 73.0471 294.699 75.1414C291.843 77.2356 289.934 79.7934 288.97 82.8146H288.764C287.457 79.1754 285.461 76.4632 282.777 74.6779C280.094 72.8926 276.894 72 273.178 72C269.118 72 265.953 72.9956 263.682 74.9869C261.412 76.9782 259.76 79.3814 258.728 82.1966H258.212V73.236H245V127H258.212Z" fill="#150919"/>
<defs>
<radialGradient id="paint0_radial" cx="0" cy="0" r="1" gradientUnits="userSpaceOnUse" gradientTransform="translate(308.998 69.5169) rotate(27.0577) scale(91.8048 91.2866)">
<stop offset="0.286458" stop-color="#F26AB2"/>
<stop offset="0.7769" stop-color="#B64FC6"/>
<stop offset="1" stop-color="#A748CB"/>
</radialGradient>
</defs>
</svg>
