<svg xmlns="http://www.w3.org/2000/svg" width="256" height="256"><path fill-opacity=".016" d="M0 128.004v128.004l128.25-.254 128.25-.254.254-127.75L257.008 0H0v128.004m.485.496c0 70.4.119 99.053.265 63.672.146-35.38.146-92.98 0-128C.604 29.153.485 58.1.485 128.5" fill="#1976D2" fill-rule="evenodd"/><path fill-opacity=".358" d="M79.246 52.154c-.908.908-1.243 6.41-1.236 20.296l.01 19.05 14.398 8.75c7.919 4.813 14.889 8.75 15.49 8.75.699 0 1.092-2.906 1.092-8.083 0-4.456.41-7.934.914-7.75 1.699.62 57.086 54.018 57.086 55.037 0 .555-.562.797-1.25.536-6.416-2.434-39.192-10.698-39.844-10.046-.466.466-.972 6.946-1.126 14.401l-.28 13.555-22-5.816c-12.1-3.199-22.562-5.82-23.25-5.825-1.763-.013-1.812 47.029-.05 48.791 1.927 1.927 68.57 1.671 76.107-.292 13.994-3.645 24.409-12.095 30.798-24.989 3.545-7.154 4.173-9.425 4.631-16.761.923-14.805-3.539-26.721-13.879-37.061l-5.922-5.922 2.594-3.402c1.427-1.871 3.805-5.983 5.283-9.138 2.357-5.029 2.688-6.969 2.688-15.756 0-9.296-.236-10.501-3.268-16.659-4.139-8.408-12.847-16.716-20.947-19.985-5.627-2.271-6.756-2.343-41.289-2.631-27.336-.228-35.79-.01-36.75.95" fill="#1976D2" fill-rule="evenodd"/><path fill-opacity=".249" d="M79.2 53.2c-.845.845-1.2 6.58-1.2 19.411v18.211l14.721 9.011c8.097 4.956 15.072 8.795 15.5 8.53.429-.265.779-3.829.779-7.922 0-4.354.42-7.441 1.012-7.441C111.196 93 168 147.111 168 148.239c0 1.31-1.982.899-22-4.561l-19.5-5.318-.28 13.55c-.154 7.452-.646 13.916-1.093 14.363-.618.618-29.117-6.231-45.377-10.905-1.631-.469-1.75 1.091-1.75 22.993 0 20.027.232 23.728 1.571 25.068 1.363 1.362 5.778 1.57 33.25 1.563 17.424-.004 34.604-.477 38.179-1.052 21.31-3.426 37.113-20.09 39.551-41.708 1.46-12.943-4.286-27.86-14.477-37.58l-6.004-5.727 3.258-4.268c5.862-7.679 8.032-14.095 8.001-23.657-.042-13.591-5.115-24.002-15.356-31.52-9.827-7.213-11.636-7.48-50.748-7.48-25.753 0-35.138.313-36.025 1.2" fill="#1976D2" fill-rule="evenodd"/><path fill-opacity=".107" d="M160 56.43c0 .275.9.981 2 1.57 1.1.589 2 .845 2 .57s-.9-.981-2-1.57c-1.1-.589-2-.845-2-.57m9.806 7.9c5.733 6.437 5.881 7.67 1.75 14.579-1.18 1.975-3.026 5.051-4.101 6.835-1.075 1.784-2.382 3.246-2.905 3.25-.522.003-.41-.534.25-1.194 1.624-1.624 1.511-2.8-.269-2.8-.807 0-1.241.592-.964 1.315.278.723-.636 2.547-2.031 4.052C160.141 91.872 159 93.39 159 93.74c0 .35.918-.348 2.039-1.551 2.928-3.144 3.458-2.696.961.811-1.175 1.65-2.893 3.007-3.818 3.015-1.266.012-1.361.219-.385.839 1.037.657.986 1.081-.25 2.107-1.288 1.069-1.547 1.012-1.547-.339 0-.892-.436-1.622-.969-1.622-.532 0-.681.749-.33 1.664.476 1.24.277 1.454-.781.84-.781-.454-1.081-.451-.666.006.414.457.012 1.991-.895 3.41l-1.647 2.58 2.894-2.496 2.894-2.497-2.962 3.272c-1.629 1.8-3.47 3.078-4.09 2.839-.621-.238-1.764.018-2.539.569-1.14.81-1.094.901.243.476.909-.289 1.884-.293 2.168-.01.853.853-2.599 4.293-3.653 3.641-.537-.332-.695-.149-.352.406.343.555-.488 2.053-1.846 3.329-1.358 1.276-2.469 3.016-2.469 3.866 0 .93-2.524-.837-6.323-4.424-3.478-3.284 2.709 2.886 13.75 13.711 12.834 12.583 19.712 20.012 19.073 20.599-.619.568-8.245-1.101-20-4.377-10.45-2.912-19.562-5.319-20.25-5.349-.943-.042-1.25 3.383-1.25 13.945 0 11.625-.248 14-1.464 14-.805 0-11.198-2.507-23.094-5.572-11.897-3.065-21.813-5.39-22.036-5.167-.223.223-.699 10.493-1.058 22.823-.571 19.618-.458 22.58.907 23.713 1.23 1.021 9.465 1.232 38.903.999 36.033-.286 37.535-.375 42.842-2.539 11.204-4.569 21.864-15.162 26.076-25.913 3.136-8.005 3.762-21.344 1.411-30.032-2.129-7.863-7.655-16.59-13.868-21.901l-4.703-4.02 4.46-6.653c5.294-7.893 7.008-14.462 6.484-24.845-.476-9.411-4.61-18.362-11.5-24.893l-4.746-4.5 5.192 5.83M175 72.941c0 .518.445 1.216.989 1.552.566.35.734-.051.393-.941-.665-1.732-1.382-2.049-1.382-.611m-7.542 6.126c-.494.801-.357.988.387.528.635-.392 1.155-.305 1.155.193 0 .499-.889 1.313-1.975 1.809-1.36.622-1.705 1.333-1.109 2.285.677 1.081 1.247.799 2.623-1.301 1.213-1.851 1.437-3.005.723-3.719-.715-.715-1.274-.651-1.804.205M116 97.5c1.292 1.375 2.574 2.5 2.849 2.5.275 0-.557-1.125-1.849-2.5-1.292-1.375-2.574-2.5-2.849-2.5-.275 0 .557 1.125 1.849 2.5m4 3.878c0 .207.787.995 1.75 1.75 1.586 1.243 1.621 1.208.378-.378-1.307-1.666-2.128-2.195-2.128-1.372m22 12.549c0 .509-.787 1.132-1.75 1.384-1.476.386-1.496.475-.122.573.895.064 2.187-.559 2.872-1.384.86-1.036.898-1.5.122-1.5-.617 0-1.122.417-1.122.927m-62 45.254c0 1.726.267 1.952 1.2 1.019.66-.66 2.085-1.2 3.167-1.2 2.514 0 1.882-.539-1.617-1.378-2.372-.569-2.75-.355-2.75 1.559" fill="#1976D2" fill-rule="evenodd"/></svg>