<svg width="240" height="240" viewBox="0 0 240 240" fill="none" xmlns="http://www.w3.org/2000/svg">
<rect width="240" height="240" fill="black"/>
<path fill-rule="evenodd" clip-rule="evenodd" d="M133.777 49C154.16 49 170.683 65.4698 170.683 85.7862C170.683 96.1453 166.387 105.504 159.474 112.19L159.079 111.917L159.486 112.213C171.248 120.011 179 133.342 179 148.478C179 172.515 159.451 192 135.337 192H78C75.7909 192 74 190.209 74 188V146.607L119.692 158.669C120.226 158.81 120.773 158.491 120.914 157.957C120.936 157.874 120.947 157.788 120.947 157.702V131.433C120.947 130.881 121.395 130.433 121.947 130.433C122.037 130.433 122.127 130.446 122.213 130.469L161.177 141.225C161.709 141.372 162.26 141.059 162.407 140.527C162.505 140.172 162.4 139.793 162.134 139.538L106.323 86.1382C105.924 85.7564 105.291 85.7704 104.909 86.1695C104.731 86.3556 104.632 86.6032 104.632 86.8608V100.985C104.632 101.538 104.184 101.985 103.632 101.985C103.449 101.985 103.27 101.935 103.114 101.841L74 84.211V53C74 50.7909 75.7909 49 78 49H133.777Z" fill="white"/>
</svg>
