<svg width="240" height="240" viewBox="0 0 240 240" fill="none" xmlns="http://www.w3.org/2000/svg">
<rect width="240" height="240" fill="black"/>
<path fill-rule="evenodd" clip-rule="evenodd" d="M129.777 49C150.16 49 166.683 65.4698 166.683 85.7862C166.683 96.1453 162.387 105.504 155.474 112.19L155.079 111.917L155.486 112.213C167.248 120.011 175 133.342 175 148.478C175 172.515 155.451 192 131.337 192H74C71.7909 192 70 190.209 70 188V146.607L115.692 158.669C116.226 158.81 116.773 158.491 116.914 157.957C116.936 157.874 116.947 157.788 116.947 157.702V131.433C116.947 130.881 117.395 130.433 117.947 130.433C118.037 130.433 118.127 130.446 118.213 130.469L157.177 141.225C157.709 141.372 158.26 141.059 158.407 140.527C158.505 140.172 158.4 139.793 158.134 139.538L102.323 86.1382C101.924 85.7564 101.291 85.7704 100.909 86.1695C100.731 86.3556 100.632 86.6032 100.632 86.8608V100.985C100.632 101.538 100.184 101.985 99.6316 101.985C99.449 101.985 99.2698 101.935 99.1136 101.841L70 84.211V53C70 50.7909 71.7909 49 74 49H129.777Z" fill="white"/>
</svg>
