<?xml version="1.0" encoding="UTF-8"?>
<svg width="417px" height="203px" viewBox="0 0 417 203" version="1.1" xmlns="http://www.w3.org/2000/svg" xmlns:xlink="http://www.w3.org/1999/xlink">
    <!-- Generator: Sketch 55.1 (78136) - https://sketchapp.com -->
    <title>boom-money-black</title>
    <desc>Created with Sketch.</desc>
    <g id="Page-1" stroke="none" stroke-width="1" fill="none" fill-rule="evenodd">
        <g id="Boom-Money-Black" fill="#000000">
            <g id="Group-2-Copy-2" transform="translate(30.000000, 30.000000)">
                <g id="Group-3" transform="translate(135.380000, 8.160000)">
                    <path d="M42.72,84.12 L42.32,84.12 L37.92,93.16 L25.68,115.48 L13.44,93.16 L9.04,84.12 L8.64,84.12 L8.64,126.84 L3.41060513e-13,126.84 L3.41060513e-13,71 L10.72,71 L25.68,99.4 L26.16,99.4 L41.12,71 L51.36,71 L51.36,126.84 L42.72,126.84 L42.72,84.12 Z M76.8705878,127.8 C73.9905734,127.8 71.363933,127.293338 68.9905878,126.28 C66.6172426,125.266662 64.6039294,123.813343 62.9505878,121.92 C61.2972462,120.026657 60.017259,117.733347 59.1105878,115.04 C58.2039166,112.346653 57.7505878,109.346683 57.7505878,106.04 C57.7505878,102.733317 58.2039166,99.7333468 59.1105878,97.04 C60.017259,94.3466532 61.2972462,92.0533428 62.9505878,90.16 C64.6039294,88.2666572 66.6172426,86.8133384 68.9905878,85.8 C71.363933,84.7866616 73.9905734,84.28 76.8705878,84.28 C79.7506022,84.28 82.3772426,84.7866616 84.7505878,85.8 C87.123933,86.8133384 89.1372462,88.2666572 90.7905878,90.16 C92.4439294,92.0533428 93.7239166,94.3466532 94.6305878,97.04 C95.537259,99.7333468 95.9905878,102.733317 95.9905878,106.04 C95.9905878,109.346683 95.537259,112.346653 94.6305878,115.04 C93.7239166,117.733347 92.4439294,120.026657 90.7905878,121.92 C89.1372462,123.813343 87.123933,125.266662 84.7505878,126.28 C82.3772426,127.293338 79.7506022,127.8 76.8705878,127.8 Z M76.8705878,120.6 C79.8572694,120.6 82.2572454,119.680009 84.0705878,117.84 C85.8839302,115.999991 86.7905878,113.240018 86.7905878,109.56 L86.7905878,102.52 C86.7905878,98.8399816 85.8839302,96.0800092 84.0705878,94.24 C82.2572454,92.3999908 79.8572694,91.48 76.8705878,91.48 C73.8839062,91.48 71.4839302,92.3999908 69.6705878,94.24 C67.8572454,96.0800092 66.9505878,98.8399816 66.9505878,102.52 L66.9505878,109.56 C66.9505878,113.240018 67.8572454,115.999991 69.6705878,117.84 C71.4839302,119.680009 73.8839062,120.6 76.8705878,120.6 Z M102.02,126.84 L102.02,85.24 L110.74,85.24 L110.74,92.12 L111.14,92.12 C112.046671,89.8799888 113.419991,88.0133408 115.26,86.52 C117.100009,85.0266592 119.619984,84.28 122.82,84.28 C127.086688,84.28 130.406655,85.679986 132.78,88.48 C135.153345,91.280014 136.34,95.2666408 136.34,100.44 L136.34,126.84 L127.62,126.84 L127.62,101.56 C127.62,95.0533008 125.006693,91.8 119.78,91.8 C118.659994,91.8 117.553339,91.9466652 116.46,92.24 C115.366661,92.5333348 114.393338,92.9733304 113.54,93.56 C112.686662,94.1466696 112.006669,94.8933288 111.5,95.8 C110.993331,96.7066712 110.74,97.7733272 110.74,99 L110.74,126.84 L102.02,126.84 Z M161.531763,127.8 C158.545082,127.8 155.878442,127.293338 153.531763,126.28 C151.185085,125.266662 149.185105,123.813343 147.531763,121.92 C145.878422,120.026657 144.611768,117.733347 143.731763,115.04 C142.851759,112.346653 142.411763,109.346683 142.411763,106.04 C142.411763,102.733317 142.851759,99.7333468 143.731763,97.04 C144.611768,94.3466532 145.878422,92.0533428 147.531763,90.16 C149.185105,88.2666572 151.185085,86.8133384 153.531763,85.8 C155.878442,84.7866616 158.545082,84.28 161.531763,84.28 C164.571778,84.28 167.251752,84.813328 169.571763,85.88 C171.891775,86.946672 173.825089,88.4266572 175.371763,90.32 C176.918438,92.2133428 178.078426,94.4133208 178.851763,96.92 C179.6251,99.4266792 180.011763,102.119986 180.011763,105 L180.011763,108.28 L151.451763,108.28 L151.451763,109.64 C151.451763,112.840016 152.39842,115.466656 154.291763,117.52 C156.185106,119.573344 158.891746,120.6 162.411763,120.6 C164.971776,120.6 167.131754,120.040006 168.891763,118.92 C170.651772,117.799994 172.14509,116.28 173.371763,114.36 L178.491763,119.4 C176.945089,121.960013 174.705111,123.999992 171.771763,125.52 C168.838415,127.040008 165.425116,127.8 161.531763,127.8 Z M161.531763,91.08 C160.038422,91.08 158.665103,91.346664 157.411763,91.88 C156.158424,92.413336 155.091768,93.1599952 154.211763,94.12 C153.331759,95.08 152.651766,96.22666 152.171763,97.56 C151.691761,98.89334 151.451763,100.359992 151.451763,101.96 L151.451763,102.52 L170.811763,102.52 L170.811763,101.72 C170.811763,98.519984 169.985105,95.9466764 168.331763,94 C166.678422,92.0533236 164.411778,91.08 161.531763,91.08 Z M213.42,85.24 L221.82,85.24 L204.3,135.08 C203.819998,136.466674 203.273336,137.653328 202.66,138.64 C202.046664,139.626672 201.326671,140.426664 200.5,141.04 C199.673329,141.653336 198.673339,142.106665 197.5,142.4 C196.326661,142.693335 194.940008,142.84 193.34,142.84 L188.3,142.84 L188.3,135.72 L195.34,135.72 L197.74,128.68 L182.62,85.24 L191.34,85.24 L199.66,109.72 L202.06,118.76 L202.46,118.76 L205.1,109.72 L213.42,85.24 Z" id="BoomMoney"></path>
                    <path d="M4.26325641e-13,-7.10542736e-15 L24.72,-7.10542736e-15 C29.3600232,-7.10542736e-15 32.9999868,1.3066536 35.64,3.92 C38.2800132,6.5333464 39.6,10.0266448 39.6,14.4 C39.6,16.4800104 39.3066696,18.253326 38.72,19.72 C38.1333304,21.186674 37.3866712,22.386662 36.48,23.32 C35.5733288,24.253338 34.5333392,24.9466644 33.36,25.4 C32.1866608,25.8533356 31.0400056,26.1333328 29.92,26.24 L29.92,26.72 C31.0400056,26.7733336 32.2799932,27.0399976 33.64,27.52 C35,28 36.2666608,28.7599948 37.44,29.8 C38.6133392,30.8400052 39.599996,32.1733252 40.4,33.8 C41.200004,35.4266748 41.6,37.4133216 41.6,39.76 C41.6,42.0000112 41.2400036,44.1066568 40.52,46.08 C39.7999964,48.0533432 38.8000064,49.7599928 37.52,51.2 C36.2399936,52.6400072 34.7200088,53.7733292 32.96,54.6 C31.1999912,55.4266708 29.2800104,55.84 27.2,55.84 L4.26325641e-13,55.84 L4.26325641e-13,-7.10542736e-15 Z M9.04,48.08 L24.56,48.08 C26.9066784,48.08 28.74666,47.4666728 30.08,46.24 C31.41334,45.0133272 32.08,43.2533448 32.08,40.96 L32.08,38.24 C32.08,35.9466552 31.41334,34.1866728 30.08,32.96 C28.74666,31.7333272 26.9066784,31.12 24.56,31.12 L9.04,31.12 L9.04,48.08 Z M9.04,23.6 L23.04,23.6 C25.2800112,23.6 27.0133272,23.0266724 28.24,21.88 C29.4666728,20.7333276 30.08,19.093344 30.08,16.96 L30.08,14.4 C30.08,12.266656 29.4666728,10.6266724 28.24,9.48 C27.0133272,8.3333276 25.2800112,7.76 23.04,7.76 L9.04,7.76 L9.04,23.6 Z M65.4705878,56.8 C62.5905734,56.8 59.963933,56.2933384 57.5905878,55.28 C55.2172426,54.2666616 53.2039294,52.8133428 51.5505878,50.92 C49.8972462,49.0266572 48.617259,46.7333468 47.7105878,44.04 C46.8039166,41.3466532 46.3505878,38.3466832 46.3505878,35.04 C46.3505878,31.7333168 46.8039166,28.7333468 47.7105878,26.04 C48.617259,23.3466532 49.8972462,21.0533428 51.5505878,19.16 C53.2039294,17.2666572 55.2172426,15.8133384 57.5905878,14.8 C59.963933,13.7866616 62.5905734,13.28 65.4705878,13.28 C68.3506022,13.28 70.9772426,13.7866616 73.3505878,14.8 C75.723933,15.8133384 77.7372462,17.2666572 79.3905878,19.16 C81.0439294,21.0533428 82.3239166,23.3466532 83.2305878,26.04 C84.137259,28.7333468 84.5905878,31.7333168 84.5905878,35.04 C84.5905878,38.3466832 84.137259,41.3466532 83.2305878,44.04 C82.3239166,46.7333468 81.0439294,49.0266572 79.3905878,50.92 C77.7372462,52.8133428 75.723933,54.2666616 73.3505878,55.28 C70.9772426,56.2933384 68.3506022,56.8 65.4705878,56.8 Z M65.4705878,49.6 C68.4572694,49.6 70.8572454,48.6800092 72.6705878,46.84 C74.4839302,44.9999908 75.3905878,42.2400184 75.3905878,38.56 L75.3905878,31.52 C75.3905878,27.8399816 74.4839302,25.0800092 72.6705878,23.24 C70.8572454,21.3999908 68.4572694,20.48 65.4705878,20.48 C62.4839062,20.48 60.0839302,21.3999908 58.2705878,23.24 C56.4572454,25.0800092 55.5505878,27.8399816 55.5505878,31.52 L55.5505878,38.56 C55.5505878,42.2400184 56.4572454,44.9999908 58.2705878,46.84 C60.0839302,48.6800092 62.4839062,49.6 65.4705878,49.6 Z M108.661176,56.8 C105.781161,56.8 103.154521,56.2933384 100.781176,55.28 C98.4078303,54.2666616 96.3945171,52.8133428 94.7411755,50.92 C93.0878339,49.0266572 91.8078467,46.7333468 90.9011755,44.04 C89.9945043,41.3466532 89.5411755,38.3466832 89.5411755,35.04 C89.5411755,31.7333168 89.9945043,28.7333468 90.9011755,26.04 C91.8078467,23.3466532 93.0878339,21.0533428 94.7411755,19.16 C96.3945171,17.2666572 98.4078303,15.8133384 100.781176,14.8 C103.154521,13.7866616 105.781161,13.28 108.661176,13.28 C111.54119,13.28 114.16783,13.7866616 116.541176,14.8 C118.914521,15.8133384 120.927834,17.2666572 122.581176,19.16 C124.234517,21.0533428 125.514504,23.3466532 126.421176,26.04 C127.327847,28.7333468 127.781176,31.7333168 127.781176,35.04 C127.781176,38.3466832 127.327847,41.3466532 126.421176,44.04 C125.514504,46.7333468 124.234517,49.0266572 122.581176,50.92 C120.927834,52.8133428 118.914521,54.2666616 116.541176,55.28 C114.16783,56.2933384 111.54119,56.8 108.661176,56.8 Z M108.661176,49.6 C111.647857,49.6 114.047833,48.6800092 115.861176,46.84 C117.674518,44.9999908 118.581176,42.2400184 118.581176,38.56 L118.581176,31.52 C118.581176,27.8399816 117.674518,25.0800092 115.861176,23.24 C114.047833,21.3999908 111.647857,20.48 108.661176,20.48 C105.674494,20.48 103.274518,21.3999908 101.461176,23.24 C99.6478331,25.0800092 98.7411755,27.8399816 98.7411755,31.52 L98.7411755,38.56 C98.7411755,42.2400184 99.6478331,44.9999908 101.461176,46.84 C103.274518,48.6800092 105.674494,49.6 108.661176,49.6 Z M133.62,55.84 L133.62,14.24 L142.34,14.24 L142.34,21.12 L142.74,21.12 C143.166669,20.053328 143.686664,19.0400048 144.3,18.08 C144.913336,17.1199952 145.659996,16.28 146.54,15.56 C147.420004,14.8399964 148.459994,14.28 149.66,13.88 C150.860006,13.479998 152.259992,13.28 153.86,13.28 C156.686681,13.28 159.193322,13.9733264 161.38,15.36 C163.566678,16.7466736 165.166662,18.8799856 166.18,21.76 L166.42,21.76 C167.16667,19.4133216 168.606656,17.4133416 170.74,15.76 C172.873344,14.1066584 175.619983,13.28 178.98,13.28 C183.140021,13.28 186.366655,14.679986 188.66,17.48 C190.953345,20.280014 192.1,24.2666408 192.1,29.44 L192.1,55.84 L183.38,55.84 L183.38,30.48 C183.38,27.279984 182.766673,24.8666748 181.54,23.24 C180.313327,21.6133252 178.36668,20.8 175.7,20.8 C174.579994,20.8 173.513338,20.9466652 172.5,21.24 C171.486662,21.5333348 170.593337,21.9733304 169.82,22.56 C169.046663,23.1466696 168.420002,23.8933288 167.94,24.8 C167.459998,25.7066712 167.22,26.7466608 167.22,27.92 L167.22,55.84 L158.5,55.84 L158.5,30.48 C158.5,24.0266344 155.966692,20.8 150.9,20.8 C149.833328,20.8 148.780005,20.9466652 147.74,21.24 C146.699995,21.5333348 145.780004,21.9733304 144.98,22.56 C144.179996,23.1466696 143.540002,23.8933288 143.06,24.8 C142.579998,25.7066712 142.34,26.7466608 142.34,27.92 L142.34,55.84 L133.62,55.84 Z" id="Combined-Shape"></path>
                </g>
                <path d="M0,65.4136904 L45,74 L45,55 L85.4855652,63.2131809 C97.2480583,71.0106812 105,84.3421259 105,99.4782609 C105,123.514654 85.451245,143 61.3366337,143 L4,143 C1.790861,143 2.705415e-16,141.209139 0,139 L0,65.4136904 Z M7.10542736e-15,23.9096588 L7.10542736e-15,4 C6.83488586e-15,1.790861 1.790861,4.05812251e-16 4,0 L59.7772277,0 C80.1598159,0 96.6831683,16.469757 96.6831683,36.7862319 C96.6831683,47.1453484 92.3873403,56.504375 85.4744804,63.1899607 L30,25 L30,37 L7.10542736e-15,23.9096588 Z" id="Shape-Copy-3"></path>
            </g>
        </g>
    </g>
</svg>