<svg width="240" height="240" viewBox="0 0 240 240" fill="none" xmlns="http://www.w3.org/2000/svg">
<path fill-rule="evenodd" clip-rule="evenodd" d="M129.777 49C150.16 49 166.683 65.4698 166.683 85.7862C166.683 96.1453 162.387 105.504 155.474 112.19L155.079 111.917L155.486 112.213C167.248 120.011 175 133.342 175 148.478C175 172.515 155.451 192 131.337 192H74C71.7909 192 70 190.209 70 188V145.259L113.061 156.626C113.595 156.767 114.142 156.448 114.283 155.914C114.305 155.831 114.316 155.745 114.316 155.659V130.943C114.316 130.391 114.764 129.943 115.316 129.943C115.406 129.943 115.495 129.955 115.582 129.979L152.177 140.081C152.709 140.228 153.26 139.915 153.407 139.383C153.505 139.028 153.4 138.648 153.134 138.394L100.569 88.0995C100.169 87.7177 99.5365 87.7317 99.1546 88.1308C98.9766 88.3169 98.8772 88.5645 98.8772 88.8221V101.966C98.8772 102.518 98.4295 102.966 97.8772 102.966C97.6946 102.966 97.5154 102.916 97.3592 102.821L70 86.254V53C70 50.7909 71.7909 49 74 49H129.777Z" fill="black"/>
</svg>
