<svg width="40" height="40" viewBox="0 0 40 40" fill="none" xmlns="http://www.w3.org/2000/svg">
<path d="M39.3972 24.8382C36.7259 35.5525 25.874 42.0731 15.1584 39.4012C4.44716 36.73 -2.07346 25.8776 0.599038 15.164C3.26904 4.44845 14.1209 -2.07273 24.8334 0.598491C35.5484 3.26971 42.0684 14.1234 39.3972 24.8382Z" fill="#F7931A"/>
<path d="M28.8157 17.1508C29.2138 14.4896 27.1876 13.059 24.4169 12.1046L25.3157 8.49966L23.1213 7.95279L22.2463 11.4628C21.6694 11.319 21.0769 11.1834 20.4882 11.049L21.3694 7.51592L19.1763 6.96905L18.2769 10.5728C17.7994 10.464 17.3307 10.3565 16.8757 10.2434L16.8782 10.2321L13.8519 9.47652L13.2682 11.8203C13.2682 11.8203 14.8963 12.1934 14.8619 12.2165C15.7507 12.4384 15.9113 13.0265 15.8844 13.4927L14.8607 17.5996C14.9219 17.6152 15.0013 17.6377 15.0888 17.6727C15.0157 17.6546 14.9376 17.6346 14.8569 17.6152L13.4219 23.3683C13.3132 23.6383 13.0376 24.0433 12.4163 23.8895C12.4382 23.9214 10.8213 23.4914 10.8213 23.4914L9.73193 26.0032L12.5876 26.7151C13.1188 26.8482 13.6394 26.9876 14.1519 27.1189L13.2438 30.7651L15.4357 31.3119L16.3351 27.7045C16.9338 27.867 17.5151 28.017 18.0838 28.1582L17.1876 31.7488L19.3819 32.2957L20.2901 28.6563C24.0319 29.3645 26.8457 29.0788 28.0301 25.6945C28.9844 22.9695 27.9826 21.3977 26.0138 20.3727C27.4476 20.042 28.5276 19.0989 28.8157 17.1508ZM23.8019 24.1814C23.1238 26.9064 18.5357 25.4332 17.0482 25.0639L18.2532 20.2333C19.7407 20.6045 24.5107 21.3395 23.8019 24.1814ZM24.4807 17.1114C23.8619 19.5902 20.0432 18.3308 18.8044 18.0221L19.8969 13.6409C21.1357 13.9496 25.1251 14.5258 24.4807 17.1114Z" fill="white"/>
</svg>
