<svg width="48" height="48" viewBox="0 0 48 48" fill="none" xmlns="http://www.w3.org/2000/svg">
<path fill-rule="evenodd" clip-rule="evenodd" d="M48 0H0V48H48V0ZM15.4286 29.4777V16.7801C15.4286 16.6905 15.453 16.6026 15.4992 16.5258C15.6401 16.2916 15.9446 16.2157 16.1794 16.3561L21.9838 19.8285C22.0609 19.8746 22.149 19.8989 22.2388 19.8989C22.5126 19.8989 22.7346 19.6776 22.7346 19.4045V17.393C22.7346 17.2665 22.7833 17.1448 22.8705 17.0529C23.0589 16.8547 23.3727 16.8463 23.5714 17.0342L34.8167 27.6635C34.9494 27.7888 35.0021 27.9769 34.9539 28.1527C34.8817 28.4161 34.609 28.5712 34.3449 28.4992L27.0141 26.5001C26.9715 26.4885 26.9275 26.4826 26.8834 26.4826C26.6096 26.4826 26.3876 26.704 26.3876 26.977V32.0768C26.3876 32.119 26.3822 32.1611 26.3715 32.2019C26.3022 32.4661 26.0313 32.6242 25.7664 32.5552L15.7989 29.956C15.5808 29.8991 15.4286 29.7025 15.4286 29.4777Z" fill="#ADA6B5"/>
</svg>
