<svg width="24" height="24" viewBox="0 0 24 24" fill="none" xmlns="http://www.w3.org/2000/svg">
<rect x="4" y="4" width="16" height="16" stroke="#ADA6B5" stroke-width="2"/>
<path fill-rule="evenodd" clip-rule="evenodd" d="M7.95996 8.71254V14.1703C7.95996 14.2669 8.02537 14.3514 8.11915 14.3759L12.4034 15.493C12.5173 15.5227 12.6337 15.4547 12.6635 15.3412C12.6681 15.3236 12.6704 15.3056 12.6704 15.2874V13.0954C12.6704 12.9781 12.7658 12.8829 12.8835 12.8829C12.9025 12.8829 12.9214 12.8854 12.9397 12.8904L16.0907 13.7497C16.2042 13.7806 16.3214 13.714 16.3524 13.6008C16.3731 13.5252 16.3505 13.4444 16.2934 13.3905L11.4599 8.82174C11.3745 8.741 11.2397 8.7446 11.1587 8.82979C11.1212 8.86927 11.1003 8.92159 11.1003 8.97598V9.84057C11.1003 9.95794 11.0049 10.0531 10.8872 10.0531C10.8486 10.0531 10.8107 10.0426 10.7776 10.0228L8.28267 8.53031C8.18175 8.46993 8.05086 8.50258 7.99032 8.60323C7.97045 8.63625 7.95996 8.67404 7.95996 8.71254Z" fill="#ADA6B5"/>
</svg>
