<svg width="302" height="73" viewBox="0 0 302 73" fill="none" xmlns="http://www.w3.org/2000/svg">
<path fill-rule="evenodd" clip-rule="evenodd" d="M254 27.2145V58.4014C254 58.9538 254.374 59.4366 254.91 59.5763L279.391 65.9602C280.042 66.1299 280.707 65.7414 280.877 65.0925C280.904 64.9923 280.917 64.889 280.917 64.7853V52.2596C280.917 51.5889 281.462 51.0452 282.135 51.0452C282.243 51.0452 282.351 51.0597 282.456 51.0882L300.461 55.9982C301.11 56.1751 301.779 55.7941 301.957 55.1472C302.075 54.7153 301.946 54.2535 301.62 53.9455L274 27.8385C273.512 27.3771 272.741 27.3977 272.278 27.8845C272.064 28.1101 271.945 28.4091 271.945 28.7199V33.6604C271.945 34.3311 271.399 34.8747 270.727 34.8747C270.506 34.8747 270.29 34.815 270.101 34.7018L255.844 26.1732C255.267 25.8282 254.519 26.0147 254.173 26.5899C254.06 26.7786 254 26.9945 254 27.2145Z" fill="url(#paint0_radial_363_57)"/>
<path d="M36.4607 72C39.1386 72 41.6105 71.467 43.8764 70.4011C46.1423 69.3352 48.0993 67.8739 49.7472 66.0172C51.3951 64.1605 52.6826 61.9771 53.6096 59.467C54.5365 56.957 55 54.2579 55 51.3696C55 48.2751 54.485 45.6791 53.4551 43.5817C52.4251 41.4842 51.1376 39.765 49.5927 38.4241C48.0478 37.0831 46.3655 36.1032 44.5459 35.4842C42.7263 34.8653 41.0268 34.5559 39.4476 34.5559V33.937C41.0955 33.8682 42.6919 33.5244 44.2369 32.9054C45.7818 32.2865 47.1551 31.3582 48.3567 30.1203C49.5584 28.8825 50.5197 27.3181 51.2406 25.4269C51.9616 23.5358 52.3221 21.2149 52.3221 18.4642C52.3221 15.7135 51.8929 13.1862 51.0346 10.8825C50.1763 8.5788 48.9232 6.6361 47.2753 5.05444C45.6273 3.47278 43.6189 2.23496 41.25 1.34097C38.8811 0.446991 36.2204 0 33.2678 0H0V72H36.4607ZM30.0502 30H13V12H30.0502C32.5607 12 34.5133 12.6536 35.908 13.9609C37.3027 15.2682 38 17.095 38 19.4413V22.5587C38 24.905 37.3027 26.7318 35.908 28.0391C34.5133 29.3464 32.5607 30 30.0502 30ZM32.8182 60H14V41H32.8182C35.4091 41 37.4205 41.6774 38.8523 43.0321C40.2841 44.3868 41 46.3173 41 48.8235V52.2781C41 54.7843 40.2841 56.6979 38.8523 58.0187C37.4205 59.3396 35.4091 60 32.8182 60ZM84.9485 73C88.7973 73 92.268 72.3504 95.3608 71.0513C98.4536 69.7521 101.082 67.8718 103.247 65.4103C105.412 62.9487 107.079 59.9915 108.247 56.5385C109.416 53.0855 110 49.2051 110 44.8974C110 40.5897 109.416 36.7265 108.247 33.3077C107.079 29.8889 105.412 26.9658 103.247 24.5385C101.082 22.1111 98.4536 20.2479 95.3608 18.9487C92.268 17.6496 88.7973 17 84.9485 17C81.0997 17 77.646 17.6496 74.5876 18.9487C71.5292 20.2479 68.9175 22.1111 66.7526 24.5385C64.5876 26.9658 62.921 29.8889 61.7526 33.3077C60.5842 36.7265 60 40.5897 60 44.8974C60 49.2051 60.5842 53.0855 61.7526 56.5385C62.921 59.9915 64.5876 62.9487 66.7526 65.4103C68.9175 67.8718 71.5292 69.7521 74.5876 71.0513C77.646 72.3504 81.0997 73 84.9485 73ZM84.9493 62C81.5699 62 78.9002 60.9363 76.9401 58.8088C74.98 56.6814 74 53.5588 74 49.4412V39.4559C74 35.4069 74.98 32.3186 76.9401 30.1912C78.9002 28.0637 81.5699 27 84.9493 27C88.3963 27 91.0998 28.0637 93.0599 30.1912C95.02 32.3186 96 35.4069 96 39.4559V49.4412C96 53.5588 95.02 56.6814 93.0599 58.8088C91.0998 60.9363 88.3963 62 84.9493 62ZM139.948 73C143.797 73 147.268 72.3504 150.361 71.0513C153.454 69.7521 156.082 67.8718 158.247 65.4103C160.412 62.9487 162.079 59.9915 163.247 56.5385C164.416 53.0855 165 49.2051 165 44.8974C165 40.5897 164.416 36.7265 163.247 33.3077C162.079 29.8889 160.412 26.9658 158.247 24.5385C156.082 22.1111 153.454 20.2479 150.361 18.9487C147.268 17.6496 143.797 17 139.948 17C136.1 17 132.646 17.6496 129.588 18.9487C126.529 20.2479 123.918 22.1111 121.753 24.5385C119.588 26.9658 117.921 29.8889 116.753 33.3077C115.584 36.7265 115 40.5897 115 44.8974C115 49.2051 115.584 53.0855 116.753 56.5385C117.921 59.9915 119.588 62.9487 121.753 65.4103C123.918 67.8718 126.529 69.7521 129.588 71.0513C132.646 72.3504 136.1 73 139.948 73ZM139.949 62C136.57 62 133.9 60.9363 131.94 58.8088C129.98 56.6814 129 53.5588 129 49.4412V39.4559C129 35.4069 129.98 32.3186 131.94 30.1912C133.9 28.0637 136.57 27 139.949 27C143.396 27 146.1 28.0637 148.06 30.1912C150.02 32.3186 151 35.4069 151 39.4559V49.4412C151 53.5588 150.02 56.6814 148.06 58.8088C146.1 60.9363 143.396 62 139.949 62ZM184.212 72V36.4663C184.212 35.0243 184.504 33.7712 185.089 32.7069C185.674 31.6426 186.431 30.75 187.36 30.029C188.289 29.3081 189.355 28.7587 190.56 28.3811C191.764 28.0034 192.985 27.8146 194.224 27.8146C200.004 27.8146 202.894 31.6598 202.894 39.3502V72H216.106V36.4663C216.106 35.0243 216.381 33.7712 216.932 32.7069C217.482 31.6426 218.222 30.75 219.151 30.029C220.08 29.3081 221.146 28.7587 222.351 28.3811C223.555 28.0034 224.811 27.8146 226.118 27.8146C231.898 27.8146 234.788 31.6598 234.788 39.3502V72H248V38.0112C248 31.2821 246.572 26.098 243.716 22.4588C240.861 18.8196 236.784 17 231.485 17C227.15 17 223.555 18.0471 220.699 20.1414C217.843 22.2356 215.934 24.7934 214.971 27.8146H214.764C213.457 24.1754 211.461 21.4632 208.777 19.6779C206.094 17.8926 202.894 17 199.178 17C195.118 17 191.953 17.9956 189.682 19.9869C187.412 21.9782 185.76 24.3814 184.728 27.1966H184.212V18.236H171V72H184.212Z" fill="white"/>
<defs>
<radialGradient id="paint0_radial_363_57" cx="0" cy="0" r="1" gradientUnits="userSpaceOnUse" gradientTransform="translate(236.998 14.5169) rotate(27.0577) scale(91.8048 91.2866)">
<stop offset="0.286458" stop-color="#F26AB2"/>
<stop offset="0.7769" stop-color="#B64FC6"/>
<stop offset="1" stop-color="#A748CB"/>
</radialGradient>
</defs>
</svg>
