<svg xmlns="http://www.w3.org/2000/svg" width="24" height="24" viewBox="0 0 24 24" style="fill: url(#paint0_radial);"><path d="M16.5 8c0 1.5-.5 3.5-2.9 4.3.7-1.7.8-3.4.3-5-.7-2.1-3-3.7-4.6-4.6-.4-.3-1.1.1-1 .7 0 1.1-.3 2.7-2 4.4C4.1 10 3 12.3 3 14.5 3 17.4 5 21 9 21c-4-4-1-7.5-1-7.5.8 5.9 5 7.5 7 7.5 1.7 0 5-1.2 5-6.4 0-3.1-1.3-5.5-2.4-6.9-.3-.5-1-.2-1.1.3"></path>
<defs>
<radialGradient id="paint0_radial" cx="0" cy="0" r="1" gradientUnits="userSpaceOnUse" gradientTransform="translate(-4.72576 -3.74155) rotate(32.0494) scale(39.3487 43.4416)">
<stop offset="0.286458" stop-color="#F26AB2"/>
<stop offset="0.7769" stop-color="#B64FC6"/>
<stop offset="1" stop-color="#A748CB"/>
</radialGradient>
</defs>
</svg>
