<svg width="17" height="16" viewBox="0 0 17 16" fill="none" xmlns="http://www.w3.org/2000/svg">
<mask id="path-1-outside-1" maskUnits="userSpaceOnUse" x="1.99878" y="1" width="14" height="14" fill="black">
<rect fill="white" x="1.99878" y="1" width="14" height="14"/>
<path fill-rule="evenodd" clip-rule="evenodd" d="M13.7488 10.75C13.7488 10.4531 13.6841 10.1712 13.568 9.91784C14.3953 9.67269 14.9988 8.90682 14.9988 8C14.9988 7.09318 14.3953 6.32731 13.568 6.08216C13.6841 5.82878 13.7488 5.54695 13.7488 5.25C13.7488 4.14543 12.8533 3.25 11.7488 3.25C11.4518 3.25 11.17 3.31472 10.9166 3.43081C10.6715 2.60352 9.9056 2 8.99878 2C8.09196 2 7.32609 2.60352 7.08094 3.43081C6.82755 3.31472 6.54573 3.25 6.24878 3.25C5.14421 3.25 4.24878 4.14543 4.24878 5.25C4.24878 5.54695 4.31349 5.82878 4.42959 6.08216C3.6023 6.32731 2.99878 7.09318 2.99878 8C2.99878 8.90682 3.6023 9.67269 4.42959 9.91784C4.31349 10.1712 4.24878 10.4531 4.24878 10.75C4.24878 11.8546 5.14421 12.75 6.24878 12.75C6.54573 12.75 6.82755 12.6853 7.08094 12.5692C7.32609 13.3965 8.09196 14 8.99878 14C9.9056 14 10.6715 13.3965 10.9166 12.5692C11.17 12.6853 11.4518 12.75 11.7488 12.75C12.8533 12.75 13.7488 11.8546 13.7488 10.75Z"/>
</mask>
<path fill-rule="evenodd" clip-rule="evenodd" d="M13.7488 10.75C13.7488 10.4531 13.6841 10.1712 13.568 9.91784C14.3953 9.67269 14.9988 8.90682 14.9988 8C14.9988 7.09318 14.3953 6.32731 13.568 6.08216C13.6841 5.82878 13.7488 5.54695 13.7488 5.25C13.7488 4.14543 12.8533 3.25 11.7488 3.25C11.4518 3.25 11.17 3.31472 10.9166 3.43081C10.6715 2.60352 9.9056 2 8.99878 2C8.09196 2 7.32609 2.60352 7.08094 3.43081C6.82755 3.31472 6.54573 3.25 6.24878 3.25C5.14421 3.25 4.24878 4.14543 4.24878 5.25C4.24878 5.54695 4.31349 5.82878 4.42959 6.08216C3.6023 6.32731 2.99878 7.09318 2.99878 8C2.99878 8.90682 3.6023 9.67269 4.42959 9.91784C4.31349 10.1712 4.24878 10.4531 4.24878 10.75C4.24878 11.8546 5.14421 12.75 6.24878 12.75C6.54573 12.75 6.82755 12.6853 7.08094 12.5692C7.32609 13.3965 8.09196 14 8.99878 14C9.9056 14 10.6715 13.3965 10.9166 12.5692C11.17 12.6853 11.4518 12.75 11.7488 12.75C12.8533 12.75 13.7488 11.8546 13.7488 10.75Z" fill="url(#paint0_radial)"/>
<path d="M13.568 9.91784L13.2838 8.95905C13.006 9.0414 12.7775 9.24026 12.6576 9.50412C12.5377 9.76798 12.5381 10.0709 12.6589 10.3344L13.568 9.91784ZM13.568 6.08216L12.6589 5.66562C12.5381 5.92911 12.5377 6.23202 12.6576 6.49588C12.7775 6.75974 13.006 6.9586 13.2838 7.04095L13.568 6.08216ZM10.9166 3.43081L9.95783 3.71493C10.0402 3.99282 10.239 4.22131 10.5029 4.34122C10.7668 4.46112 11.0697 4.46065 11.3332 4.33993L10.9166 3.43081ZM7.08094 3.43081L6.6644 4.33993C6.92789 4.46065 7.23079 4.46112 7.49466 4.34122C7.75852 4.22131 7.95738 3.99282 8.03973 3.71493L7.08094 3.43081ZM4.42959 6.08216L4.71371 7.04095C4.9916 6.9586 5.22009 6.75974 5.33999 6.49588C5.4599 6.23201 5.45943 5.92911 5.33871 5.66562L4.42959 6.08216ZM4.42959 9.91784L5.33871 10.3344C5.45943 10.0709 5.4599 9.76799 5.33999 9.50412C5.22009 9.24026 4.9916 9.0414 4.71371 8.95905L4.42959 9.91784ZM7.08094 12.5692L8.03973 12.2851C7.95738 12.0072 7.75852 11.7787 7.49466 11.6588C7.23079 11.5389 6.92789 11.5393 6.6644 11.6601L7.08094 12.5692ZM10.9166 12.5692L11.3332 11.6601C11.0697 11.5393 10.7668 11.5389 10.5029 11.6588C10.239 11.7787 10.0402 12.0072 9.95783 12.2851L10.9166 12.5692ZM12.6589 10.3344C12.7163 10.4597 12.7488 10.5997 12.7488 10.75H14.7488C14.7488 10.3064 14.6519 9.88275 14.4771 9.5013L12.6589 10.3344ZM13.9988 8C13.9988 8.45194 13.6982 8.83627 13.2838 8.95905L13.8521 10.8766C15.0923 10.5091 15.9988 9.36171 15.9988 8H13.9988ZM13.2838 7.04095C13.6982 7.16373 13.9988 7.54806 13.9988 8H15.9988C15.9988 6.63829 15.0923 5.4909 13.8521 5.12337L13.2838 7.04095ZM12.7488 5.25C12.7488 5.40031 12.7163 5.5403 12.6589 5.66562L14.4771 6.4987C14.6519 6.11725 14.7488 5.69358 14.7488 5.25H12.7488ZM11.7488 4.25C12.3011 4.25 12.7488 4.69772 12.7488 5.25H14.7488C14.7488 3.59315 13.4056 2.25 11.7488 2.25V4.25ZM11.3332 4.33993C11.4585 4.28251 11.5985 4.25 11.7488 4.25V2.25C11.3052 2.25 10.8815 2.34692 10.5001 2.52169L11.3332 4.33993ZM8.99878 3C9.45072 3 9.83505 3.30059 9.95783 3.71493L11.8754 3.14669C11.5079 1.90645 10.3605 1 8.99878 1V3ZM8.03973 3.71493C8.16251 3.30059 8.54684 3 8.99878 3V1C7.63707 1 6.48967 1.90645 6.12215 3.14669L8.03973 3.71493ZM6.24878 4.25C6.39909 4.25 6.53907 4.28251 6.6644 4.33993L7.49748 2.52169C7.11603 2.34692 6.69237 2.25 6.24878 2.25V4.25ZM5.24878 5.25C5.24878 4.69772 5.69649 4.25 6.24878 4.25V2.25C4.59193 2.25 3.24878 3.59315 3.24878 5.25H5.24878ZM5.33871 5.66562C5.28129 5.5403 5.24878 5.40031 5.24878 5.25H3.24878C3.24878 5.69359 3.3457 6.11725 3.52047 6.4987L5.33871 5.66562ZM3.99878 8C3.99878 7.54806 4.29937 7.16373 4.71371 7.04095L4.14547 5.12337C2.90523 5.49089 1.99878 6.63829 1.99878 8H3.99878ZM4.71371 8.95905C4.29937 8.83627 3.99878 8.45194 3.99878 8H1.99878C1.99878 9.36171 2.90523 10.5091 4.14547 10.8766L4.71371 8.95905ZM5.24878 10.75C5.24878 10.5997 5.28129 10.4597 5.33871 10.3344L3.52047 9.5013C3.3457 9.88275 3.24878 10.3064 3.24878 10.75H5.24878ZM6.24878 11.75C5.69649 11.75 5.24878 11.3023 5.24878 10.75H3.24878C3.24878 12.4069 4.59193 13.75 6.24878 13.75V11.75ZM6.6644 11.6601C6.53907 11.7175 6.39908 11.75 6.24878 11.75V13.75C6.69237 13.75 7.11603 13.6531 7.49748 13.4783L6.6644 11.6601ZM8.99878 13C8.54684 13 8.16251 12.6994 8.03973 12.2851L6.12215 12.8533C6.48967 14.0936 7.63707 15 8.99878 15V13ZM9.95783 12.2851C9.83505 12.6994 9.45071 13 8.99878 13V15C10.3605 15 11.5079 14.0936 11.8754 12.8533L9.95783 12.2851ZM11.7488 11.75C11.5985 11.75 11.4585 11.7175 11.3332 11.6601L10.5001 13.4783C10.8815 13.6531 11.3052 13.75 11.7488 13.75V11.75ZM12.7488 10.75C12.7488 11.3023 12.3011 11.75 11.7488 11.75V13.75C13.4056 13.75 14.7488 12.4069 14.7488 10.75H12.7488Z" fill="url(#paint1_radial)" mask="url(#path-1-outside-1)"/>
<path fill-rule="evenodd" clip-rule="evenodd" d="M12.7059 6.20711L7.85233 11.0607L5.49878 8.70711L6.20589 8L7.85233 9.64645L11.9988 5.5L12.7059 6.20711Z" fill="#FAF4FC"/>
<defs>
<radialGradient id="paint0_radial" cx="0" cy="0" r="1" gradientUnits="userSpaceOnUse" gradientTransform="translate(-1.2517 -1.44493) rotate(31.5064) scale(23.9732 26.2184)">
<stop offset="0.286458" stop-color="#F26AB2"/>
<stop offset="0.7769" stop-color="#B64FC6"/>
<stop offset="1" stop-color="#A748CB"/>
</radialGradient>
<radialGradient id="paint1_radial" cx="0" cy="0" r="1" gradientUnits="userSpaceOnUse" gradientTransform="translate(-1.2517 -1.44493) rotate(31.5064) scale(23.9732 26.2184)">
<stop offset="0.286458" stop-color="#F26AB2"/>
<stop offset="0.7769" stop-color="#B64FC6"/>
<stop offset="1" stop-color="#A748CB"/>
</radialGradient>
</defs>
</svg>
