<svg width="25" height="24" viewBox="0 0 25 24" fill="none" xmlns="http://www.w3.org/2000/svg">
<g clip-path="url(#clip0)">
<path d="M12.9988 2C7.48478 2 2.99878 6.486 2.99878 12C2.99878 17.514 7.48478 22 12.9988 22C18.5128 22 22.9988 17.514 22.9988 12C22.9988 6.486 18.5128 2 12.9988 2ZM12.9988 20C8.58778 20 4.99878 16.411 4.99878 12C4.99878 7.589 8.58778 4 12.9988 4C17.4098 4 20.9988 7.589 20.9988 12C20.9988 16.411 17.4098 20 12.9988 20Z" fill="#eb6fc8"/>
<path d="M10.9979 13.587L8.69886 11.292L7.28687 12.708L10.9999 16.413L17.7059 9.70697L16.2919 8.29297L10.9979 13.587Z" fill="#eb6fc8"/>
</g>
<defs>
<clipPath id="clip0">
<rect width="24" height="24" fill="white" transform="translate(0.998779)"/>
</clipPath>
</defs>
</svg>
