<?xml version="1.0" encoding="UTF-8"?>
<svg width="60px" height="60px" viewBox="0 0 60 60" version="1.1" xmlns="http://www.w3.org/2000/svg" xmlns:xlink="http://www.w3.org/1999/xlink">
    <title>fake-collectible-1</title>
    <g id="fake-collectible-1" stroke="none" stroke-width="1" fill="none" fill-rule="evenodd">
        <rect fill="#FFFFFF" x="0" y="0" width="60" height="60"></rect>
        <path d="M3.68383854,43.1775089 C10.4079055,53.1921341 21.4626815,53.2987164 10.176785,38.0556119 C9.76267227,37.4962975 9.41730068,36.4777511 9.90882747,35.9850815 C15.7744522,30.1058192 23.1280147,39.3230794 27.9775403,34.4169716 C29.3529204,33.0255441 31.1684794,30.9711267 30.5181128,29.1259264 C26.2940517,17.1415476 11.6136397,43.7424245 37.5229699,38.0076028 C39.8865417,37.4844452 42.1245737,36.229073 43.9673491,34.6592499 C45.1979899,33.6108917 46.3201952,32.0714711 46.3873407,30.456224 C46.5625507,26.241384 37.4329016,22.7334302 36.2356571,22.323154 C32.8004259,21.1459561 23.2203724,23.1071212 25.5301946,20.3050987 C33.0179097,11.2218255 38.6975243,25.248756 40.4984152,15.9507884 C40.6541903,15.1465246 40.5690653,14.0650189 39.9228647,13.5615002 C33.9581456,8.91379875 28.1107592,11.9821081 20.8761068,10.718359 C19.9110392,10.5497809 18.1772471,8.90218536 19.0344569,8.42788011 C29.2402612,2.78087718 44.8680498,-1.00405264 54.5695363,7.41745683 C55.4887032,8.21535243 55.7046796,9.6354383 55.8239126,10.8467553 C56.3239778,15.9270425 56.9607496,21.0745102 56.4134192,26.1499228 C54.9847768,39.3977701 54.8258552,57.1835014 37.8897368,51.2982975 C35.2308625,50.374354 33.4044734,46.4127487 30.6437179,46.9618511 C25.2204765,48.0405105 28.8077777,57.0679369 33.0268654,54.7108486 C46.7957263,47.0185647 31.4026092,49.225228 33.5739454,51.2837831 C34.9210405,52.5609089 36.7726705,53.3586114 38.6009408,53.6797703 C46.717353,55.1055209 54.9761246,55.5476577 63.1637166,56.4816014" id="Path-15" stroke="#27261E"></path>
        <path d="M1,45.6779046 C7.724067,55.6925299 18.778843,55.7991121 7.49294648,40.5560076 C7.07883373,39.9966933 6.73346214,38.9781469 7.22498892,38.4854773 C13.0906137,32.6062149 20.4441761,41.8234751 25.2937017,36.9173673 C26.6690819,35.5259399 28.4846408,33.4715225 27.8342743,31.6263221 C23.6102131,19.6419433 8.92980114,46.2428202 34.8391313,40.5079985 C37.2027032,39.984841 39.4407352,38.7294688 41.2835105,37.1596456 C42.5141514,36.1112875 43.6363567,34.5718669 43.7035022,32.9566197 C43.8787122,28.7417797 34.7490631,25.233826 33.5518186,24.8235497 C30.1165874,23.6463518 20.5365339,25.6075169 22.8463561,22.8054944 C30.3340711,13.7222212 36.0136857,27.7491517 37.8145767,18.4511841 C37.9703517,17.6469203 37.8852268,16.5654146 37.2390262,16.061896 C31.274307,11.4141945 25.4269206,14.4825038 18.1922683,13.2187547 C17.2272006,13.0501766 15.4934085,11.4025811 16.3506184,10.9282758 C26.5564227,5.28127289 42.1842112,1.49634307 51.8856977,9.91785255 C52.8048647,10.7157481 53.0208411,12.135834 53.140074,13.347151 C53.6401393,18.4274383 54.276911,23.5749059 53.7295806,28.6503185 C52.3009383,41.8981658 52.1420166,59.6838971 35.2058982,53.7986932 C32.547024,52.8747497 30.7206348,48.9131444 27.9598794,49.4622468 C22.536638,50.5409062 26.1239391,59.5683326 30.3430269,57.2112443 C44.1118878,49.5189604 28.7187707,51.7256238 30.8901069,53.7841789 C32.2372019,55.0613046 34.088832,55.8590071 35.9171023,56.180166 C44.0335145,57.6059166 52.2922861,58.0480534 60.479878,58.9819972" id="Path-15-Copy" stroke="#FFE93A"></path>
    </g>
</svg>