<?xml version="1.0" encoding="UTF-8"?>
<svg width="60px" height="60px" viewBox="0 0 60 60" version="1.1" xmlns="http://www.w3.org/2000/svg" xmlns:xlink="http://www.w3.org/1999/xlink">
    <title>fake-collectible-4</title>
    <defs>
        <linearGradient x1="50%" y1="0%" x2="50%" y2="100%" id="linearGradient-1">
            <stop stop-color="#C8C8C8" offset="0%"></stop>
            <stop stop-color="#FFFFFF" stop-opacity="0.21" offset="100%"></stop>
        </linearGradient>
    </defs>
    <g id="fake-collectible-4" stroke="none" stroke-width="1" fill="none" fill-rule="evenodd">
        <rect fill="#000000" x="0" y="0" width="60" height="60"></rect>
        <g id="Group" transform="translate(9.000000, 11.000000)" fill="url(#linearGradient-1)" fill-rule="nonzero">
            <path d="M24.5677093,1.13641621 C25.6372007,2.05595189 26.3657314,3.65131333 27.4550061,6.98175504 L28.109736,9.01523407 C28.1658071,9.11735207 28.2001394,9.22304513 28.2121599,9.33010238 L28.4309289,9.99568925 C28.6763226,10.7321869 28.8903641,11.3367447 29.1053542,11.894741 L29.2915992,12.3660076 L28.3648664,12.7417285 L28.1732941,12.2570992 L27.9602188,11.6888175 C27.8171462,11.296989 27.6705406,10.8753495 27.5114724,10.4007231 C26.9908915,10.7220414 26.1650346,11.0100647 25.1195872,11.2507072 C22.6456523,11.8201612 19.4605899,12.0170855 17.1499021,11.6741984 C15.3743726,11.4107245 14.1137134,10.8308235 13.5747721,9.94604194 L13.3595435,10.6950638 C13.2926462,10.9211722 13.2292798,11.1280021 13.1655004,11.3284152 L12.9390282,12.0103938 L11.9937269,11.6841951 L12.1602504,11.1877289 L12.3060485,10.7255408 C12.3550899,10.5654422 12.4052134,10.3972338 12.4583382,10.2146938 C9.30784176,10.7982599 4.89782865,12.4152539 2.81637503,13.9534255 L2.577778,14.1369251 L2.3589115,14.3208996 C0.360066823,16.0868034 1.76979208,17.4907782 8.28382442,18.6251196 L8.50815948,18.6573203 L8.80857835,18.6881076 C12.3043818,18.995685 26.3698783,18.8070399 33.5628851,17.9336593 L34.2505665,17.8461954 L34.9428807,17.749539 C39.1142892,17.1391342 41.4652803,16.2680478 41.4432301,15.40961 C41.412237,14.2030125 37.6866701,12.2754995 29.9326235,9.91058673 L28.6029243,9.51243321 L28.8850996,8.55307034 L29.7922192,8.8228252 L30.6814423,9.09344589 C38.676869,11.5565553 42.3955447,13.5403217 42.4429004,15.3839321 C42.4895074,17.1983964 39.4107636,18.2309498 33.6834206,18.9263683 C29.7709304,19.4014259 23.8708985,19.6760074 18.6923627,19.7780729 L19.0348608,19.8206935 C18.7725808,21.9527764 19.3042298,23.3297395 20.0528377,23.58725 C20.5376293,23.7540113 20.9488191,23.2409941 20.7924046,22.1497375 L20.7629187,21.9726433 L21.7455489,21.7870692 C22.0986611,23.656827 21.0984624,25.0044393 19.7275586,24.532868 C18.4856417,24.1056663 17.7788209,22.3711951 18.0135694,19.959551 L18.0321026,19.7902239 L16.7915257,19.8082914 C15.5708779,19.8229257 14.4145145,19.8273072 13.362908,19.8218534 L14.4770776,21.8170086 C18.2647806,28.5444707 19.7808686,30.6025175 21.2060074,30.8809213 C22.7270623,31.1780624 24.311919,28.4439526 26.6154089,21.0817989 L26.9919005,19.8585041 L27.948933,20.1484848 L27.5620657,21.4064105 L27.2708367,22.326149 C26.0236041,26.2105676 24.963557,28.7862911 23.9076486,30.2794571 L24.1508667,38.2088132 L23.1513332,38.2393545 L22.9408492,31.3472936 C22.3270983,31.8381475 21.6964137,31.9956257 21.0142796,31.8623694 C20.0790243,31.6796654 19.2344076,31.0850754 18.1137995,29.6285944 L18.3653649,35.5649917 L17.3662636,35.6073774 L17.0488249,28.1155725 L16.7279289,27.6193243 C15.7423117,26.0726583 14.5453525,23.9985888 13.0026176,21.2321106 L12.3282081,20.0186277 L12.6919118,19.8169023 L11.4739741,19.7992236 C9.8449499,19.7667594 8.64439393,19.7029573 8.11226801,19.6102939 L7.43219245,19.4859875 C0.3488388,18.1273767 -1.27296292,15.731977 2.22205748,13.149195 C4.54943304,11.4292898 9.44317904,9.67449945 12.7604253,9.14525638 L13.1228526,7.83029307 L13.4321635,6.75199648 C14.0245221,4.74862391 14.4828075,3.6091235 15.2301281,2.33536895 C16.0105933,1.00512168 16.7959686,0.403109745 17.6365943,0.527213354 C18.2255672,0.614164851 18.674213,1.00261083 19.1584845,1.68493819 L19.3281162,1.93383873 L19.7011768,2.51019118 C21.5813422,0.394835459 23.1893128,-0.0487123411 24.5677093,1.13641621 Z M22.2849597,25.2780077 L22.2849597,26.2780077 L18.8309263,26.2780077 L18.8309263,25.2780077 L22.2849597,25.2780077 Z M14.462,8.113 L14.4181632,8.22683352 C13.9531356,9.53100061 14.9340617,10.3344359 17.2966865,10.6850299 C19.4755769,11.0083593 22.5366541,10.8191007 24.8952716,10.2761907 C25.8872442,10.047857 26.6460425,9.77575132 27.0294007,9.52229196 L27.171,9.418 L27.1379951,9.39680398 C27.1088807,9.37885788 27.0710318,9.35670721 27.023186,9.33156771 L26.9437618,9.2917688 C25.6611557,8.67813709 21.9521952,8.25411324 15.8231301,8.13476591 L14.462,8.113 Z M19.9446864,3.77518199 L19.607608,4.23786786 C19.1010878,3.42156243 18.7186956,2.82039547 18.4604312,2.43436698 C18.0730347,1.85532424 17.7594962,1.55619659 17.4905449,1.51649065 C17.1551964,1.46698233 16.6896588,1.82382975 16.0926379,2.84140936 L15.887233,3.20242421 C15.2972509,4.2738953 14.8905929,5.33880028 14.3684871,7.11271973 L14.9458179,7.11981976 C21.0193498,7.20517763 24.9313193,7.56956312 26.7865519,8.16206517 L26.6215133,7.65257437 C25.5322272,4.27937781 24.822088,2.67392851 23.9157626,1.89468093 C22.9496065,1.06399174 21.7408928,1.5053868 19.9446864,3.77518199 Z" id="Shape"></path>
        </g>
    </g>
</svg>