<?xml version="1.0" encoding="UTF-8"?>
<svg width="60px" height="60px" viewBox="0 0 60 60" version="1.1" xmlns="http://www.w3.org/2000/svg" xmlns:xlink="http://www.w3.org/1999/xlink">
    <title>fake-collectible-3</title>
    <g id="fake-collectible-3" stroke="none" stroke-width="1" fill="none" fill-rule="evenodd">
        <rect fill="#FFFFFF" x="0" y="0" width="60" height="60"></rect>
        <path d="M24.0168271,58.3516079 C24.3224553,32.8255393 8.85243153,62.0621152 10.9609317,28.3598853 C11.0275574,27.2949414 12.4012577,26.6569455 13.4035481,26.290942 C20.173716,23.8186992 18.2333257,42.6128322 22.9271483,35.1004651 C28.734636,25.8056996 18.0672858,9.91394816 28.0144056,3.33825548 C29.2825908,2.49990262 31.0100406,1.61695478 32.4242298,2.17480634 C41.0303776,5.56965142 28.0072753,27.1208666 38.0876668,28.6501449 C43.6332245,29.4914517 36.7705551,14.4092106 44.0047193,13.1974382 C44.9217416,13.0438306 45.7052603,14.3694294 45.8518696,15.2875965 C46.0756886,16.6893026 47.3878665,33.5455858 45.2105984,36.8772202 C44.080619,38.6063036 40.0862786,37.181319 39.4434973,39.1443308 L32.4174795,39.1665101 C30.0118703,46.5130818 31.8470857,51.4022104 31.6561508,59.1302513" id="Path-32" stroke="#01AD60" fill="#B7FFC2"></path>
        <polyline id="Path-33" stroke="#FF7575" points="25.0298427 14.9197094 24.4498057 14.9197094 21.9927246 14.9197094 21.0120136 14.9197094 20.9801911 14.9197094"></polyline>
        <path d="M26.8702428,8.54219519 C25.5651997,7.31317246 24.2601566,6.08414973 22.9551135,4.855127" id="Path-34" stroke="#FF7575"></path>
        <path d="M31.6561508,12.5012009 C34.3212031,11.0204913 36.9862554,9.5397817 39.6513077,8.05907209" id="Path-35" stroke="#FF7575"></path>
        <path d="M29.5693676,30.1819634 C28.7148215,29.8127905 27.8602755,29.4436176 27.0057294,29.0744447" id="Path-36" stroke="#FF7575"></path>
        <path d="M29.7651241,20.8107253 C31.5965239,19.867462 33.4279236,18.9241987 35.2593234,17.9809355" id="Path-37" stroke="#FF7575"></path>
        <path d="M38.218814,38.8545533 C39.6294498,39.440537 41.0400857,40.0265206 42.4507216,40.6125042" id="Path-38" stroke="#FF7575"></path>
        <path d="M42.1676944,32.8569803 C45.2078662,31.7104067 48.248038,30.5638331 51.2882098,29.4172595" id="Path-39" stroke="#FF7575"></path>
        <polyline id="Path-40" stroke="#FF7575" points="38.3292283 30.6612292 35.3779344 30.6612292 32.579967 30.6612292 32.4112115 30.6612292 32.2424559 30.6612292 32.1715786 30.6612292 32.1392739 30.6612292 32.1069693 30.6612292"></polyline>
        <path d="M43.4458973,18.195014 C43.4553798,16.2665396 43.4648622,14.3380652 43.4743447,12.4095908" id="Path-41" stroke="#FF7575"></path>
        <path d="M42.1035673,25.1511187 C40.9375466,25.0390971 39.771526,24.9270756 38.6055053,24.815054" id="Path-42" stroke="#FF7575"></path>
        <path d="M44.1913148,22.5416753 C46.5680361,21.8637601 48.9447575,21.1858449 51.3214788,20.5079296" id="Path-43" stroke="#FF7575"></path>
        <path d="M14.7805935,33.0377898 C11.853729,32.4643423 8.92686451,31.8908948 6,31.3174473" id="Path-44" stroke="#FF7575"></path>
        <path d="M12.0101092,28.5310517 C10.6057414,28.209934 9.20137358,27.8888162 7.79700577,27.5676985" id="Path-45" stroke="#FF7575"></path>
        <polyline id="Path-46" stroke="#FF7575" points="15.179821 27.9553541 15.179821 26.2851561 15.179821 25.9910393 15.179821 24.6106187 15.179821 24.3285558 15.179821 24.2678038 15.179821 24.2374278 15.179821 24.1733007 15.179821 24.1429247 15.179821 24.11062 15.179821 24.040707 15.179821 24.0084024 15.179821 23.9760977 15.179821 23.9437931 15.179821 23.9114884 15.179821 23.8811124"></polyline>
        <path d="M18.7424922,45.1814408 C16.1970153,46.2192073 13.6515384,47.2569737 11.1060615,48.2947401" id="Path-47" stroke="#FF7575"></path>
        <path d="M19.6267714,40.1192558 C19.3262258,39.2661562 19.0256801,38.4130566 18.7251345,37.559957" id="Path-48" stroke="#FF7575"></path>
        <path d="M23.4102714,37.4857046 C22.543832,35.9137062 21.6773927,34.3417079 20.8109534,32.7697095" id="Path-49" stroke="#FF7575"></path>
        <polyline id="Path-50" stroke="#FF7575" points="27.2723632 40.9119249 27.2723632 39.5257184 27.2723632 38.2388366 27.2723632 38.1679592 27.2723632 38.1375832 27.2723632 38.1052786 27.2723632 38.072974 27.2723632 38.0112576"></polyline>
        <path d="M29.1744796,49.9056326 C32.1977758,49.1991092 35.2210721,48.4925859 38.2443684,47.7860626" id="Path-51" stroke="#FF7575"></path>
        <path d="M27.6306072,46.4741085 C26.4589613,46.3259251 25.2873155,46.1777416 24.1156697,46.0295581" id="Path-52" stroke="#FF7575"></path>
        <path d="M25.8360122,55.2821851 C23.8467858,55.3056502 21.8575594,55.3291152 19.868333,55.3525803" id="Path-53" stroke="#FF7575"></path>
    </g>
</svg>