<svg height="24" viewBox="0 0 24 24" width="24" xmlns="http://www.w3.org/2000/svg"><g fill="none" fill-rule="evenodd"><path d="m5 2a3 3 0 0 0 -3 3v10a3 3 0 0 0 3 3h10a3 3 0 0 0 3-3v-10a3 3 0 0 0 -3-3z" fill="#b375ff" fill-rule="nonzero"/><path d="m20 22h-10.5a1.5 1.5 0 0 1 -1.5-1.5v-.5h11.5a.5.5 0 0 0 .5-.5v-11.5h.5a1.5 1.5 0 0 1 1.5 1.5v10.5a2 2 0 0 1 -2 2z" fill="#b375ff"/><g fill="#fff" transform="translate(6.126 6)"><circle cx="3.874" cy="2" r="2"/><path d="m0 8a4.002 4.002 0 0 1 7.748 0z"/></g></g></svg>