<svg width="24" height="24" viewBox="0 0 24 24" fill="none" xmlns="http://www.w3.org/2000/svg">
<path fill-rule="evenodd" clip-rule="evenodd" d="M12.532 1.11783L21.3592 5.51758C21.7002 5.68807 21.9283 6.01916 21.9648 6.39423C22.0069 6.82761 22.8849 17.0724 12.5807 22.857C12.4124 22.9527 12.2242 23 12.036 23C11.8544 23 11.6717 22.956 11.5079 22.8669C0.784087 17.0735 2.03737 6.46573 2.05177 6.35904C2.09827 5.99606 2.32523 5.68037 2.65405 5.51538L11.5411 1.11563C11.8533 0.96164 12.2209 0.96054 12.532 1.11783ZM13.1083 8.94564C13.1083 9.74426 13.7558 10.3917 14.5542 10.3917C15.3527 10.3917 16.0001 9.74426 16.0001 8.94564C16.0001 8.1474 15.3527 7.5 14.5542 7.5C13.7558 7.5 13.1083 8.1474 13.1083 8.94564ZM9.4451 10.3907C10.2434 10.3907 10.8905 9.7436 10.8905 8.9455C10.8905 8.1474 10.2434 7.50026 9.4451 7.50026C8.64722 7.50026 8.0001 8.1474 8.0001 8.9455C8.0001 9.7436 8.64722 10.3907 9.4451 10.3907ZM13.1083 14.0575C13.1083 13.259 13.7557 12.6116 14.5544 12.6116C15.3526 12.6116 16 13.259 16 14.0575C16 14.8559 15.3526 15.5034 14.5544 15.5034C13.7557 15.5034 13.1083 14.8559 13.1083 14.0575ZM10.8904 14.0584C10.8904 13.2601 10.2433 12.613 9.44522 12.613C8.64714 12.613 8 13.2601 8 14.0584C8 14.8563 8.64714 15.5034 9.44522 15.5034C10.2433 15.5034 10.8904 14.8563 10.8904 14.0584Z" fill="#ADA6B5"/>
</svg>
