<svg xmlns="http://www.w3.org/2000/svg" width="24" height="24" viewBox="0 0 24 24">
    <path fill="#B375FF" fill-rule="nonzero" d="M21.36 5.518c.34.17.568.501.605.876.042.434.92 10.678-9.384 16.463a1.107 1.107 0 0 1-1.073.01C.784 17.074 2.038 6.466 2.052 6.359c.046-.363.273-.679.602-.844l8.887-4.4a1.11 1.11 0 0 1 .991.003l8.827 4.4zm-6.806 4.874a1.446 1.446 0 1 0 0-2.892 1.446 1.446 0 0 0 0 2.892zM10.89 8.945a1.445 1.445 0 1 0-2.89 0 1.445 1.445 0 0 0 2.89 0zm3.664 3.667a1.446 1.446 0 1 0 0 2.892 1.446 1.446 0 0 0 0-2.892zm-5.109.001a1.445 1.445 0 1 0 0 2.89 1.445 1.445 0 0 0 0-2.89z"/>
</svg>
