<svg width="16" height="16" viewBox="0 0 16 16" fill="none" xmlns="http://www.w3.org/2000/svg">
<path fill-rule="evenodd" clip-rule="evenodd" d="M3.06052 2.17C2.56868 2.17 2.16997 2.56871 2.16997 3.06055V6.94944C2.16997 7.44128 2.56868 7.84 3.06052 7.84H6.94941C7.44125 7.84 7.83997 7.44128 7.83997 6.94944V3.06055C7.83997 2.56871 7.44125 2.17 6.94941 2.17H3.06052ZM0.839966 3.06055C0.839966 1.83417 1.83414 0.839996 3.06052 0.839996H6.94941C8.17579 0.839996 9.16997 1.83417 9.16997 3.06055V6.94944C9.16997 8.17582 8.17579 9.17 6.94941 9.17H3.06052C1.83414 9.17 0.839966 8.17582 0.839966 6.94944V3.06055Z" fill="#F5006A"/>
<path fill-rule="evenodd" clip-rule="evenodd" d="M5.16997 9.94947V9.17003H3.83997V9.94947C3.83997 11.1759 4.83414 12.17 6.06052 12.17H6.83997V12.9495C6.83997 14.1758 7.83414 15.17 9.06052 15.17H12.9494C14.1758 15.17 15.17 14.1758 15.17 12.9495V9.06058C15.17 7.8342 14.1758 6.84003 12.9494 6.84003H12.17V6.06058C12.17 4.8342 11.1758 3.84003 9.94941 3.84003H9.16997V5.17003H9.94941C10.4413 5.17003 10.84 5.56874 10.84 6.06058V9.94947C10.84 10.4413 10.4413 10.84 9.94941 10.84H6.06052C5.56868 10.84 5.16997 10.4413 5.16997 9.94947ZM12.17 8.17003V9.94947C12.17 11.1759 11.1758 12.17 9.94941 12.17H8.16997V12.9495C8.16997 13.4413 8.56868 13.84 9.06052 13.84H12.9494C13.4413 13.84 13.84 13.4413 13.84 12.9495V9.06058C13.84 8.56874 13.4413 8.17003 12.9494 8.17003H12.17Z" fill="#F5006A"/>
</svg>
