<svg width="17" height="16" viewBox="0 0 17 16" fill="none" xmlns="http://www.w3.org/2000/svg">
<path d="M10.6379 3.46896C9.8326 3.39576 9.1225 3.98873 9.04929 4.80132L8.86628 6.91699H10.9307V8.38112H8.73451L8.4124 12.0927C8.27331 13.7032 6.8531 14.8965 5.24256 14.7501C4.28355 14.6696 3.47828 14.1351 3.00244 13.3811L4.10054 12.283C4.27623 12.8247 4.7594 13.242 5.36701 13.2933C6.17228 13.3665 6.88238 12.7735 6.95559 11.9609L7.27038 8.38112H5.07418V6.91699H7.39483L7.59248 4.66955C7.73158 3.05901 9.15178 1.86574 10.7623 2.01216C11.7213 2.09268 12.5266 2.62709 13.0024 3.38112L11.9043 4.47921C11.7286 3.93749 11.2455 3.52021 10.6379 3.46896Z" fill="#F5006A"/>
</svg>
