<svg xmlns="http://www.w3.org/2000/svg" width="9" height="9" viewBox="0 0 9 9">
    <path fill="#eb6fc8" fill-rule="nonzero" d="M8.96 4.668l-.47-1.446a.204.204 0 0 0-.012-.039L7.534.277a.375.375 0 0 0-.713.002l-.9 2.77H3.08L2.178.278A.369.369 0 0 0 1.826.02h-.002a.376.376 0 0 0-.357.258l-.945 2.91c0 .003-.002.005-.003.007L.04 4.668a.537.537 0 0 0 .195.601l4.14 3.008a.212.212 0 0 0 .25-.001l4.14-3.006a.537.537 0 0 0 .195-.602M2.772 3.473l1.154 3.552-2.77-3.552m3.92 3.553L6.181 3.62l.047-.148h1.618L5.34 6.683M7.179.552l.81 2.497H6.368m-.583.424L4.98 5.946 4.5 7.419 3.218 3.472M1.823.552l.812 2.496H1.013M.484 4.927a.114.114 0 0 1-.041-.128l.356-1.093L3.408 7.05m5.108-2.124L5.592 7.05l.01-.013 2.6-3.331.355 1.093a.114.114 0 0 1-.04.128"/>
</svg>
