<svg viewBox="0 0 24 24" fill="none" width="24" height="24" xlmns="http://www.w3.org/2000/svg" class="sc-bdvvtL sc-iCfMLu iWfNDX"><path fill-rule="evenodd" clip-rule="evenodd" d="M17 6.25H13C12.5858 6.25 12.25 6.58579 12.25 7C12.25 7.41421 12.5858 7.75 13 7.75H15.1893L12.4697 10.4697C12.1768 10.7626 12.1768 11.2374 12.4697 11.5303C12.7626 11.8232 13.2374 11.8232 13.5303 11.5303L16.25 8.81066V11C16.25 11.4142 16.5858 11.75 17 11.75C17.4142 11.75 17.75 11.4142 17.75 11V7V6.25H17ZM8.81066 16.25L11.5303 13.5303C11.8232 13.2374 11.8232 12.7626 11.5303 12.4697C11.2374 12.1768 10.7626 12.1768 10.4697 12.4697L7.75 15.1893V13C7.75 12.5858 7.41421 12.25 7 12.25C6.58579 12.25 6.25 12.5858 6.25 13V17V17.75H7H11C11.4142 17.75 11.75 17.4142 11.75 17C11.75 16.5858 11.4142 16.25 11 16.25H8.81066Z" fill="currentColor"></path></svg>
