<svg height="64" viewBox="0 0 64 64" width="64" xmlns="http://www.w3.org/2000/svg"><g fill="none" transform="translate(10 15)"><path d="m19.2349383 0h5.7705262v1.44262295c0 3.17450558 2.9889842 5.7704918 6.4918033 5.7704918 3.4466802 0 6.4027929-2.3056634 6.4918032-5.40983606l5.0491804-1.80327869c.4808513 2.8852459.721277 5.98087432.721277 9.28688525 0 20.28688525-20.1966869 31.10655735-21.6393098 31.10655735-1.442623 0-21.63934428-10.8196721-21.63934428-31.10655735 0-3.30600583.24042568-6.40163935.72127706-9.28688525l5.04918033 1.80327869c.08901031 3.10417266 3.04512307 5.40983606 6.49180329 5.40983606 3.5028191 0 6.4918033-2.59598622 6.4918033-5.7704918z" fill="#b375ff"/><path d="m6.16721311 5.41305621c0-.91907616.01667487-2.18729942.0500246-3.62195395l.034094.01217643c.08901031 3.10417266 3.04512307 5.40983606 6.49180329 5.40983606 3.5028191 0 6.4918033-2.59598622 6.4918033-5.7704918v-1.44262295h5.7705262v1.44262295c0 3.17450558 2.9889842 5.7704918 6.4918033 5.7704918 3.4466802 0 6.4027929-2.3056634 6.4918032-5.40983606l5.0491804-1.80327869c.4808513 2.8852459.721277 5.98087432.721277 9.28688525 0 14.94572865-10.9618428 24.75308465-17.3107818 28.88127735-8.7766155-4.627179-20.28153349-15.179299-20.28153349-32.75510639z" fill="#9754eb"/><path d="m31.0175088 34.7329301c-6.6034197-5.0217701-15.3696893-14.4599164-15.8493877-27.94999231 2.3529976-.86444204 4.0668172-2.93652313 4.0668172-5.34031484v-1.44262295h5.7705262v1.44262295c0 3.17450558 2.9889842 5.7704918 6.4918033 5.7704918 3.4466802 0 6.4027929-2.3056634 6.4918032-5.40983606l5.0491804-1.80327869c.4808513 2.8852459.721277 5.98087432.721277 9.28688525 0 11.73973385-6.7634127 20.30911265-12.7420196 25.44604485z" fill="#7f36da"/></g></svg>