<svg width="106" height="144" viewBox="0 0 106 144" fill="none" xmlns="http://www.w3.org/2000/svg">
<path fill-rule="evenodd" clip-rule="evenodd" d="M60.3465 0C80.9232 0 97.604 16.5849 97.604 37.0435C97.604 47.475 93.2672 56.8995 86.2885 63.6318L85.8893 63.357L86.2997 63.6552C98.1742 71.5073 106 84.9319 106 100.174C106 124.378 86.2651 144 61.9208 144H4.0381C1.80792 144 0 142.197 0 139.972V96.9321L43.4707 108.378C44.0098 108.52 44.5621 108.199 44.7044 107.662C44.7266 107.578 44.7378 107.491 44.7378 107.405V82.5161C44.7378 81.96 45.1898 81.5091 45.7474 81.5091C45.8381 81.5091 45.9285 81.5214 46.016 81.5454L82.9596 91.7176C83.4971 91.8655 84.053 91.5509 84.2014 91.0148C84.3002 90.6577 84.1945 90.2754 83.9262 90.0193L30.8596 39.373C30.4568 38.9885 29.8178 39.0026 29.4323 39.4044C29.2525 39.5918 29.1522 39.8412 29.1522 40.1006V53.3364C29.1522 53.8926 28.7002 54.3434 28.1427 54.3434C27.9583 54.3434 27.7775 54.2931 27.6198 54.1978L0 37.5145V4.02797C0 1.80338 1.80792 0 4.0381 0H60.3465Z" fill="url(#paint0_radial)"/>
<defs>
<radialGradient id="paint0_radial" cx="0" cy="0" r="1" gradientUnits="userSpaceOnUse" gradientTransform="translate(-37.5459 -41.3392) rotate(39.7839) scale(234.944 283.58)">
<stop offset="0.286458" stop-color="#F26AB2"/>
<stop offset="0.7769" stop-color="#B64FC6"/>
<stop offset="1" stop-color="#A748CB"/>
</radialGradient>
</defs>
</svg>
