<svg width="81" height="80" viewBox="0 0 81 80" fill="none" xmlns="http://www.w3.org/2000/svg">
<path d="M58.37 18.4531C57.4725 16.9398 55.83 16 54.085 16H26.915C25.17 16 23.5275 16.9398 22.63 18.4531L15.8575 29.8568C15.6225 30.2509 15.5 30.6981 15.5 31.1579C15.5 33.6994 16.465 35.9933 18 37.7718V58.9474C18 61.7339 20.2425 64 23 64H33H48H58C60.7575 64 63 61.7339 63 58.9474V37.7718C64.535 35.9933 65.5 33.6994 65.5 31.1579C65.5 30.6981 65.3775 30.2509 65.1425 29.8568L58.37 18.4531ZM60.46 31.792C60.15 34.2779 58.045 36.2105 55.5 36.2105C52.7425 36.2105 50.5 33.9444 50.5 31.1579C50.5 30.9861 50.4875 30.8244 50.4525 30.6627L48.55 21.0526H54.085L60.46 31.792ZM37.5475 21.0526H43.45L45.4825 31.3221C45.395 34.0303 43.2 36.2105 40.5 36.2105C37.8 36.2105 35.605 34.0303 35.5175 31.3221L37.5475 21.0526ZM26.915 21.0526H32.45L30.55 30.6627C30.5125 30.8244 30.5 30.9861 30.5 31.1579C30.5 33.9444 28.2575 36.2105 25.5 36.2105C22.955 36.2105 20.85 34.2779 20.54 31.792L26.915 21.0526ZM35.5 58.9474V43.7895H45.5V58.9474H35.5Z" fill="url(#paint0_radial)"/>
<defs>
<radialGradient id="paint0_radial" cx="0" cy="0" r="1" gradientUnits="userSpaceOnUse" gradientTransform="translate(-2.21033 2.22027) rotate(30.4741) scale(98.8134 106.015)">
<stop offset="0.286458" stop-color="#F26AB2"/>
<stop offset="0.7769" stop-color="#B64FC6"/>
<stop offset="1" stop-color="#A748CB"/>
</radialGradient>
</defs>
</svg>
