<svg width="22" height="20" viewBox="0 0 22 20" fill="none" xmlns="http://www.w3.org/2000/svg">
<path d="M19 9H14C12.8954 9 12 9.89543 12 11V16C12 17.1046 12.8954 18 14 18H19C20.1046 18 21 17.1046 21 16V11C21 9.89543 20.1046 9 19 9Z" fill="#E9D1F2" stroke="#A748CB"/>
<path d="M13.5 5.5H8.5C7.39543 5.5 6.5 6.39543 6.5 7.5V12.5C6.5 13.6046 7.39543 14.5 8.5 14.5H13.5C14.6046 14.5 15.5 13.6046 15.5 12.5V7.5C15.5 6.39543 14.6046 5.5 13.5 5.5Z" fill="#E9D1F2" stroke="#A748CB"/>
<path d="M8 2H3C1.89543 2 1 2.89543 1 4V9C1 10.1046 1.89543 11 3 11H8C9.10457 11 10 10.1046 10 9V4C10 2.89543 9.10457 2 8 2Z" fill="#E9D1F2" stroke="#A748CB"/>
</svg>
