<svg width="108" height="32" viewBox="0 0 108 32" fill="none" xmlns="http://www.w3.org/2000/svg">
<rect x="0.0012207" width="107" height="32" rx="16" fill="#A748CB"/>
<path d="M23.4154 9L28.587 9L36.587 17L29.0012 24.5858L21.0012 16.5858L21.0012 11.4142L23.4154 9Z" stroke="#FAFAFA" stroke-width="2"/>
<ellipse cx="25.5012" cy="13.5" rx="1.5" ry="1.5" transform="rotate(90 25.5012 13.5)" fill="#FAFAFA"/>
<path d="M52.4275 21.144C51.8755 21.144 51.3755 21.052 50.9275 20.868C50.4795 20.684 50.0955 20.408 49.7755 20.04C49.4635 19.672 49.2195 19.22 49.0435 18.684C48.8675 18.148 48.7795 17.524 48.7795 16.812C48.7795 16.108 48.8675 15.488 49.0435 14.952C49.2195 14.408 49.4635 13.952 49.7755 13.584C50.0955 13.216 50.4795 12.94 50.9275 12.756C51.3755 12.572 51.8755 12.48 52.4275 12.48C52.9795 12.48 53.4795 12.572 53.9275 12.756C54.3755 12.94 54.7595 13.216 55.0795 13.584C55.3995 13.952 55.6435 14.408 55.8115 14.952C55.9875 15.488 56.0755 16.108 56.0755 16.812C56.0755 17.524 55.9875 18.148 55.8115 18.684C55.6435 19.22 55.3995 19.672 55.0795 20.04C54.7595 20.408 54.3755 20.684 53.9275 20.868C53.4795 21.052 52.9795 21.144 52.4275 21.144ZM52.4275 19.74C53.0275 19.74 53.5035 19.54 53.8555 19.14C54.2155 18.74 54.3955 18.18 54.3955 17.46V16.164C54.3955 15.444 54.2155 14.884 53.8555 14.484C53.5035 14.084 53.0275 13.884 52.4275 13.884C51.8275 13.884 51.3475 14.084 50.9875 14.484C50.6355 14.884 50.4595 15.444 50.4595 16.164V17.46C50.4595 18.18 50.6355 18.74 50.9875 19.14C51.3475 19.54 51.8275 19.74 52.4275 19.74ZM57.5865 21V14.736H59.1225V15.78H59.1825C59.3105 15.444 59.5105 15.164 59.7825 14.94C60.0625 14.708 60.4465 14.592 60.9345 14.592C61.5825 14.592 62.0785 14.804 62.4225 15.228C62.7665 15.652 62.9385 16.256 62.9385 17.04V21H61.4025V17.196C61.4025 16.748 61.3225 16.412 61.1625 16.188C61.0025 15.964 60.7385 15.852 60.3705 15.852C60.2105 15.852 60.0545 15.876 59.9025 15.924C59.7585 15.964 59.6265 16.028 59.5065 16.116C59.3945 16.196 59.3025 16.3 59.2305 16.428C59.1585 16.548 59.1225 16.692 59.1225 16.86V21H57.5865ZM70.1771 21.144C69.4571 21.144 68.8451 21.016 68.3411 20.76C67.8451 20.504 67.4171 20.168 67.0571 19.752L68.1251 18.72C68.4131 19.056 68.7331 19.312 69.0851 19.488C69.4451 19.664 69.8411 19.752 70.2731 19.752C70.7611 19.752 71.1291 19.648 71.3771 19.44C71.6251 19.224 71.7491 18.936 71.7491 18.576C71.7491 18.296 71.6691 18.068 71.5091 17.892C71.3491 17.716 71.0491 17.588 70.6091 17.508L69.8171 17.388C68.1451 17.124 67.3091 16.312 67.3091 14.952C67.3091 14.576 67.3771 14.236 67.5131 13.932C67.6571 13.628 67.8611 13.368 68.1251 13.152C68.3891 12.936 68.7051 12.772 69.0731 12.66C69.4491 12.54 69.8731 12.48 70.3451 12.48C70.9771 12.48 71.5291 12.584 72.0011 12.792C72.4731 13 72.8771 13.308 73.2131 13.716L72.1331 14.736C71.9251 14.48 71.6731 14.272 71.3771 14.112C71.0811 13.952 70.7091 13.872 70.2611 13.872C69.8051 13.872 69.4611 13.96 69.2291 14.136C69.0051 14.304 68.8931 14.544 68.8931 14.856C68.8931 15.176 68.9851 15.412 69.1691 15.564C69.3531 15.716 69.6491 15.828 70.0571 15.9L70.8371 16.044C71.6851 16.196 72.3091 16.468 72.7091 16.86C73.1171 17.244 73.3211 17.784 73.3211 18.48C73.3211 18.88 73.2491 19.244 73.1051 19.572C72.9691 19.892 72.7651 20.172 72.4931 20.412C72.2291 20.644 71.9011 20.824 71.5091 20.952C71.1251 21.08 70.6811 21.144 70.1771 21.144ZM79.421 21C79.085 21 78.817 20.904 78.617 20.712C78.425 20.512 78.305 20.248 78.257 19.92H78.185C78.081 20.328 77.869 20.636 77.549 20.844C77.229 21.044 76.833 21.144 76.361 21.144C75.721 21.144 75.229 20.976 74.885 20.64C74.541 20.304 74.369 19.856 74.369 19.296C74.369 18.648 74.601 18.168 75.065 17.856C75.529 17.536 76.189 17.376 77.045 17.376H78.113V16.92C78.113 16.568 78.021 16.296 77.837 16.104C77.653 15.912 77.357 15.816 76.949 15.816C76.589 15.816 76.297 15.896 76.073 16.056C75.857 16.208 75.673 16.392 75.521 16.608L74.609 15.792C74.841 15.432 75.149 15.144 75.533 14.928C75.917 14.704 76.425 14.592 77.057 14.592C77.905 14.592 78.549 14.784 78.989 15.168C79.429 15.552 79.649 16.104 79.649 16.824V19.776H80.273V21H79.421ZM76.877 20.028C77.221 20.028 77.513 19.952 77.753 19.8C77.993 19.648 78.113 19.424 78.113 19.128V18.3H77.129C76.329 18.3 75.929 18.556 75.929 19.068V19.272C75.929 19.528 76.009 19.72 76.169 19.848C76.337 19.968 76.573 20.028 76.877 20.028ZM83.0522 21C82.5242 21 82.1362 20.868 81.8882 20.604C81.6402 20.34 81.5162 19.968 81.5162 19.488V12.12H83.0522V19.776H83.8802V21H83.0522ZM87.5755 21.144C87.1115 21.144 86.6955 21.068 86.3275 20.916C85.9675 20.756 85.6595 20.536 85.4035 20.256C85.1555 19.968 84.9635 19.624 84.8275 19.224C84.6915 18.816 84.6235 18.36 84.6235 17.856C84.6235 17.36 84.6875 16.912 84.8155 16.512C84.9515 16.112 85.1435 15.772 85.3915 15.492C85.6395 15.204 85.9435 14.984 86.3035 14.832C86.6635 14.672 87.0715 14.592 87.5275 14.592C88.0155 14.592 88.4395 14.676 88.7995 14.844C89.1595 15.012 89.4555 15.24 89.6875 15.528C89.9195 15.816 90.0915 16.152 90.2035 16.536C90.3235 16.912 90.3835 17.316 90.3835 17.748V18.252H86.2195V18.408C86.2195 18.864 86.3475 19.232 86.6035 19.512C86.8595 19.784 87.2395 19.92 87.7435 19.92C88.1275 19.92 88.4395 19.84 88.6795 19.68C88.9275 19.52 89.1475 19.316 89.3395 19.068L90.1675 19.992C89.9115 20.352 89.5595 20.636 89.1115 20.844C88.6715 21.044 88.1595 21.144 87.5755 21.144ZM87.5515 15.744C87.1435 15.744 86.8195 15.88 86.5795 16.152C86.3395 16.424 86.2195 16.776 86.2195 17.208V17.304H88.7875V17.196C88.7875 16.764 88.6795 16.416 88.4635 16.152C88.2555 15.88 87.9515 15.744 87.5515 15.744Z" fill="#FAFAFA"/>
</svg>
