<?xml version="1.0" encoding="UTF-8"?>
<svg width="23px" height="23px" viewBox="0 0 23 23" version="1.1" xmlns="http://www.w3.org/2000/svg" xmlns:xlink="http://www.w3.org/1999/xlink">
    <title>Icon/Scan QR Square Purple Copy 2</title>
    <g id="Icon/Scan-QR-Square-Purple-Copy-2" stroke="none" stroke-width="1" fill="none" fill-rule="evenodd">
        <g id="Group-3" transform="translate(1.000000, 1.000000)" fill="#B375FF" fill-rule="nonzero">
            <g id="Group-2">
                <g id="Group">
                    <path d="M7,0 L7,2 L2,2 L2,7 L0,7 L0,2 C0,0.945638205 0.815877791,0.0818348781 1.85073766,0.00548573643 L2,0 L7,0 Z" id="Path-4"></path>
                    <path d="M0,14 L2,14 L2,19 L7,19 L7,21 L2,21 C0.945638205,21 0.0818348781,20.1841222 0.00548573643,19.1492623 L0,19 L0,14 Z" id="Path-9"></path>
                    <path d="M21,14 L21,19 C21,20.0543618 20.1841222,20.9181651 19.1492623,20.9945143 L19,21 L14,21 L14,19 L19,19 L19,14 L21,14 Z" id="Path-10"></path>
                    <path d="M19,0 C20.0543618,0 20.9181651,0.815877791 20.9945143,1.85073766 L21,2 L21,7 L19,7 L19,2 L14,2 L14,0 L19,0 Z" id="Path-11"></path>
                </g>
            </g>
        </g>
        <rect id="Rectangle" stroke="#B375FF" stroke-width="2" x="6" y="6" width="4" height="4"></rect>
        <rect id="Rectangle-Copy-3" stroke="#B375FF" stroke-width="2" x="13" y="6" width="4" height="4"></rect>
        <rect id="Rectangle-Copy" stroke="#B375FF" stroke-width="2" x="6" y="13" width="4" height="4"></rect>
        <rect id="Rectangle-Copy-4" fill="#B375FF" x="16" y="12" width="2" height="2"></rect>
        <rect id="Rectangle-Copy-5" fill="#B375FF" x="12" y="12" width="2" height="2"></rect>
        <rect id="Rectangle-Copy-6" fill="#B375FF" x="16" y="16" width="2" height="2"></rect>
        <rect id="Rectangle-Copy-8" fill="#B375FF" x="14" y="14" width="2" height="2"></rect>
        <rect id="Rectangle-Copy-7" fill="#B375FF" x="12" y="16" width="2" height="2"></rect>
    </g>
</svg>