<?xml version="1.0" encoding="UTF-8"?>
<svg width="24px" height="24px" viewBox="0 0 24 24" version="1.1" xmlns="http://www.w3.org/2000/svg" xmlns:xlink="http://www.w3.org/1999/xlink">
    <!-- Generator: Sketch 55.1 (78136) - https://sketchapp.com -->
    <title>scan-qr-square</title>
    <desc>Created with Sketch.</desc>
    <g id="Page-1" stroke="none" stroke-width="1" fill="none" fill-rule="evenodd">
        <g id="Artboard-Copy-6">
            <g id="Group-3" transform="translate(4.000000, 4.000000)">
                <g id="Group-2">
                    <g id="Group" stroke="#B375FF">
                        <path d="M0,6 L0,1 C-6.76353751e-17,0.44771525 0.44771525,1.01453063e-16 1,0 L6,0" id="Path-4"></path>
                        <path d="M6,16 L1,16 C0.44771525,16 6.76353751e-17,15.5522847 0,15 L0,10" id="Path-9"></path>
                        <path d="M10,16 L15,16 C15.5522847,16 16,15.5522847 16,15 L16,10" id="Path-10"></path>
                        <path d="M16,6 L16,1 C16,0.44771525 15.5522847,-1.01453063e-16 15,0 L10,0" id="Path-11"></path>
                    </g>
                    <path d="M7,5 L7,4 L8,4 L8,5 L9,5 L9,6 L8,6 L8,7 L7,7 L7,6 L7,5 Z M7,9 L6,9 L5,9 L5,8 L6,8 L6,7 L7,7 L7,8 L8,8 L8,9 L7,9 Z M4,7 L5,7 L5,8 L4,8 L3,8 L3,7 L4,7 Z M11,11 L11,10 L12,10 L13,10 L13,9 L14,9 L14,10 L14,11 L14,12 L13,12 L13,11 L12,11 L12,12 L11,12 L11,11 Z M10,13 L10,12 L11,12 L11,13 L11,14 L10,14 L9,14 L9,13 L10,13 Z M8,11 L8,12 L7,12 L7,11 L7,10 L8,10 L8,11 Z M12,8 L13,8 L13,9 L12,9 L11,9 L11,8 L10,8 L10,7 L11,7 L12,7 L12,8 Z M13,14 L12,14 L12,13 L12,12 L13,12 L13,13 L14,13 L14,14 L13,14 Z M10,9 L11,9 L11,10 L10,10 L9,10 L9,9 L9,8 L10,8 L10,9 Z M13,7 L14,7 L14,8 L13,8 L13,7 Z M9,11 L10,11 L10,12 L9,12 L9,11 Z M8,7 L9,7 L9,8 L8,8 L8,7 Z M8,12 L9,12 L9,13 L8,13 L8,12 Z M7,13 L8,13 L8,14 L7,14 L7,13 Z M7,2 L8,2 L8,3 L7,3 L7,2 Z M2,8 L3,8 L3,9 L2,9 L2,8 Z M8,3 L9,3 L9,4 L8,4 L8,3 Z" id="Combined-Shape" fill="#B375FF"></path>
                </g>
                <rect id="Rectangle-Copy" stroke="#B375FF" x="2.5" y="2.5" width="3" height="3"></rect>
                <rect id="Rectangle-Copy-2" stroke="#B375FF" x="10.5" y="2.5" width="3" height="3"></rect>
                <rect id="Rectangle-Copy-3" stroke="#B375FF" x="2.5" y="10.5" width="3" height="3"></rect>
            </g>
        </g>
    </g>
</svg>