<svg width="18" height="18" viewBox="0 0 18 18" fill="none" xmlns="http://www.w3.org/2000/svg">
<path d="M0.999939 7V2C0.999939 1.44772 1.44765 1 1.99994 1H6.99994" stroke="#A748CB" stroke-width="2"/>
<path d="M6.99994 17H1.99994C1.44765 17 0.999939 16.5523 0.999939 16V11" stroke="#A748CB" stroke-width="2"/>
<path d="M10.9999 17H15.9999C16.5522 17 16.9999 16.5523 16.9999 16V11" stroke="#A748CB" stroke-width="2"/>
<path d="M16.9999 7V2C16.9999 1.44772 16.5522 1 15.9999 1H10.9999" stroke="#A748CB" stroke-width="2"/>
<rect x="4.49994" y="4.5" width="3" height="3" stroke="#A748CB" stroke-width="2"/>
<rect x="10.4999" y="4.5" width="3" height="3" stroke="#A748CB" stroke-width="2"/>
<rect x="4.49994" y="10.5" width="3" height="3" stroke="#A748CB" stroke-width="2"/>
<path fill-rule="evenodd" clip-rule="evenodd" d="M9.49994 9.5H11.4999V11.5H9.49994V9.5ZM12.4999 9.5H14.4999V11.5H12.4999V9.5ZM9.49994 12.5H11.4999V14.5H9.49994V12.5ZM12.4999 12.5H14.4999V14.5H12.4999V12.5Z" fill="#A748CB"/>
</svg>
