<?xml version="1.0" encoding="UTF-8"?>
<svg width="18px" height="18px" viewBox="0 0 18 18" version="1.1" xmlns="http://www.w3.org/2000/svg" xmlns:xlink="http://www.w3.org/1999/xlink">
    <title>search copy</title>
    <g id="Page-1" stroke="none" stroke-width="1" fill="none" fill-rule="evenodd">
        <g id="search-copy" fill="#7F36DA" fill-rule="nonzero">
            <path d="M13.463,12.05 L17.707,16.293 C18.0859722,16.6853789 18.0805524,17.3090848 17.6948186,17.6948186 C17.3090848,18.0805524 16.6853789,18.0859722 16.293,17.707 L12.049,13.463 C8.91037566,15.857361 4.45298235,15.4088537 1.85429188,12.4371984 C-0.744398583,9.46554307 -0.59467315,4.98814468 2.19673577,2.19673577 C4.98814468,-0.59467315 9.46554307,-0.744398583 12.4371984,1.85429188 C15.4088537,4.45298235 15.857361,8.91037566 13.463,12.049 L13.463,12.05 Z M7.5,13 C10.5375661,13 13,10.5375661 13,7.5 C13,4.46243388 10.5375661,2 7.5,2 C4.46243388,2 2,4.46243388 2,7.5 C2,10.5375661 4.46243388,13 7.5,13 Z" id="Shape"></path>
        </g>
    </g>
</svg>