<svg xmlns="http://www.w3.org/2000/svg" width="24" height="24" viewBox="0 0 24 24" fill="url(#paint0_radial)"><path d="M20.98 11.802a.995.995 0 0 0-.738-.771l-6.86-1.716 2.537-5.921a.998.998 0 0 0-.317-1.192.996.996 0 0 0-1.234.024l-11 9a1 1 0 0 0 .39 1.744l6.719 1.681-3.345 5.854A1.001 1.001 0 0 0 8 22a.995.995 0 0 0 .6-.2l12-9a1 1 0 0 0 .38-.998z"></path>
<defs>
<radialGradient id="paint0_radial" cx="0" cy="0" r="1" gradientUnits="userSpaceOnUse" gradientTransform="translate(-1.83384 -5.31571) rotate(39.7839) scale(35.8942 43.3247)">
<stop offset="0.286458" stop-color="#F26AB2"/>
<stop offset="0.7769" stop-color="#B64FC6"/>
<stop offset="1" stop-color="#A748CB"/>
</radialGradient>
</defs>
</svg>
