<?xml version="1.0" encoding="UTF-8"?>
<svg width="16px" height="16px" viewBox="0 0 16 16" version="1.1" xmlns="http://www.w3.org/2000/svg" xmlns:xlink="http://www.w3.org/1999/xlink">
    <!-- Generator: Sketch 58 (84663) - https://sketch.com -->
    <title>twitter</title>
    <desc>Created with Sketch.</desc>
    <g id="Page-2" stroke="none" stroke-width="1" fill="url(#paint0_radial)" fill-rule="evenodd">
        <g id="Webby---Selected-Dapp" transform="translate(-56.000000, -600.000000)" fill="url(#paint0_radial)" fill-rule="nonzero">
            <g id="Group" transform="translate(0.000000, 298.000000)">
                <g id="Group-3" transform="translate(24.000000, 302.000000)">
                    <g id="twitter" transform="translate(32.000000, 2.000000)">
                        <path d="M14.3561978,3.17834448 C14.366782,3.31686587 14.366782,3.4545957 14.366782,3.59232553 C14.366782,7.80733333 11.0669652,12.6642888 5.03643395,12.6642888 C3.178506,12.6642888 1.45247303,12.1410737 0,11.2323735 C0.263789945,11.2616609 0.517809892,11.271951 0.792184002,11.271951 C2.32525952,11.271951 3.73621005,10.7685247 4.86383065,9.90969215 C3.42194179,9.88040478 2.21371871,8.96220589 1.79686546,7.69889088 C1.99959292,7.72817826 2.20313454,7.74796703 2.41644616,7.74796703 C2.71036027,7.74796703 3.00590271,7.70838949 3.28027682,7.63952457 C1.7765113,7.34348459 0.650519031,6.0603808 0.650519031,4.51052441 L0.650519031,4.47094688 C1.08772644,4.70762055 1.59495217,4.85564055 2.13230206,4.87542931 C1.24893141,4.30392967 0.670059027,3.32636448 0.670059027,2.22056806 C0.670059027,1.62848809 0.83207816,1.08548427 1.11622227,0.612136916 C2.73071443,2.54589542 5.15774476,3.81000199 7.87868919,3.94852337 C7.82821087,3.71105815 7.79727254,3.46488586 7.79727254,3.21792202 C7.79727254,1.46067933 9.25951557,0.0295555556 11.0767352,0.0295555556 C12.0211683,0.0295555556 12.8736007,0.414249225 13.4728272,1.03640812 C14.2137187,0.89788674 14.9236719,0.631134134 15.5538368,0.266229233 C15.310401,1.00632919 14.7917769,1.62848809 14.1119479,2.02347192 C14.7722369,1.95381546 15.4121718,1.77650809 16,1.52954425 C15.5538368,2.16120175 14.9961327,2.72399435 14.3561978,3.17834448 Z" id="Path"></path>
                    </g>
                </g>
            </g>
        </g>
    </g>
<defs>
<radialGradient id="paint0_radial" cx="0" cy="0" r="1" gradientUnits="userSpaceOnUse" gradientTransform="translate(-1.83384 -5.31571) rotate(39.7839) scale(35.8942 43.3247)">
<stop offset="0.286458" stop-color="#F26AB2"/>
<stop offset="0.7769" stop-color="#B64FC6"/>
<stop offset="1" stop-color="#A748CB"/>
</radialGradient>
</defs>
</svg>
