<svg width="16" height="16" viewBox="0 0 16 16" fill="none" xmlns="http://www.w3.org/2000/svg">
<g clip-path="url(#clip0_319_1017)">
<path fill-rule="evenodd" clip-rule="evenodd" d="M9.01819 15.4627C12.6787 14.9659 15.5 11.828 15.5 8.03125C15.5 3.88912 12.1421 0.53125 8 0.53125C3.85787 0.53125 0.5 3.88912 0.5 8.03125C0.5 11.8515 3.35625 15.0046 7.04975 15.4716C6.69262 14.6401 6.34588 13.8241 6.04372 13.0305C4.84353 9.87813 3.57787 2.77535 7.75894 2.77535C8.83675 2.77535 9.75353 3.58747 10.0922 4.7205L10.1523 4.7705L12.8249 5.19266C13.0431 5.22712 13.2205 5.387 13.2774 5.60053L13.2898 5.64716C13.3168 5.74847 13.2405 5.84791 13.1356 5.84791C13.1356 5.84791 10.0326 5.83812 9.91291 5.84791C6.479 6.12831 7.35919 10.6972 9.01819 15.4627Z" fill="url(#paint0_radial_319_1017)"/>
</g>
<defs>
<radialGradient id="paint0_radial_319_1017" cx="0" cy="0" r="1" gradientUnits="userSpaceOnUse" gradientTransform="translate(-1.21922 -5.78944) rotate(46.4051) scale(37.5016 45.9703)">
<stop offset="0.286458" stop-color="#F26AB2"/>
<stop offset="0.7769" stop-color="#B64FC6"/>
<stop offset="1" stop-color="#A748CB"/>
</radialGradient>
<clipPath id="clip0_319_1017">
<rect width="16" height="16" fill="white"/>
</clipPath>
</defs>
</svg>
