<?xml version="1.0" encoding="UTF-8"?>
<svg width="16px" height="16px" viewBox="0 0 16 16" version="1.1" xmlns="http://www.w3.org/2000/svg" xmlns:xlink="http://www.w3.org/1999/xlink">
    <!-- Generator: Sketch 58 (84663) - https://sketch.com -->
    <title>Path</title>
    <desc>Created with Sketch.</desc>
    <g id="Page-2" stroke="none" stroke-width="1" fill="none" fill-rule="evenodd">
        <g id="Webby---Selected-Dapp" transform="translate(-24.000000, -600.000000)" fill="#b375ff" fill-rule="nonzero">
            <g id="Group" transform="translate(0.000000, 298.000000)">
                <g id="Group-3" transform="translate(24.000000, 302.000000)">
                    <path d="M8,0 C3.58131141,0 0,3.67196452 0,8.20250259 C0,11.8259462 2.29155805,14.9008567 5.47102466,15.9864095 C5.87126529,16.0604244 6.01564067,15.8079512 6.01564067,15.5908406 C6.01564067,15.3959345 6.00922398,14.8794746 6.00681773,14.1960698 C3.78103068,14.6911476 3.31100862,13.095714 3.31100862,13.095714 C2.94846601,12.1483225 2.42310006,11.8958492 2.42310006,11.8958492 C1.69721275,11.3867907 2.47844395,11.3983042 2.47844395,11.3983042 C3.28213355,11.4558714 3.70322839,12.2437195 3.70322839,12.2437195 C4.41708442,13.4970396 5.57689994,13.1351886 6.03088029,12.9254796 C6.10387006,12.395039 6.31241227,12.0331881 6.54020453,11.8284134 C4.76438741,11.6219938 2.89713254,10.9180293 2.89713254,7.7740382 C2.89713254,6.88010194 3.20914377,6.14653142 3.71846802,5.57414905 C3.63745739,5.36608476 3.36073792,4.53136047 3.79787447,3.40304349 C3.79787447,3.40304349 4.46921997,3.18182099 5.9971927,4.24270211 C6.63725687,4.06095426 7.31983156,3.96966914 7.99919791,3.96637959 C8.68016844,3.96966914 9.36354522,4.06095426 10.0012031,4.24270211 C11.5299779,3.1809986 12.2005214,3.40304349 12.2005214,3.40304349 C12.6376579,4.53136047 12.3633447,5.36608476 12.2799278,5.57414905 C12.7932625,6.14653142 13.1012633,6.87927955 13.1012633,7.7740382 C13.1012633,10.9262532 11.2324043,11.6187043 9.45017044,11.8218342 C9.73491077,12.0751299 9.9915781,12.5751421 9.9915781,13.3399634 C9.9915781,14.4370296 9.98195308,15.3219196 9.98195308,15.5908406 C9.98195308,15.8104183 10.1247243,16.0653588 10.5329858,15.9847647 C13.7108482,14.8975671 16,11.8251238 16,8.20250259 C16,3.67196452 12.4186886,0 8,0 Z" id="Path"></path>
                </g>
            </g>
        </g>
    </g>
</svg>
