<svg width="120" height="15" viewBox="0 0 120 15" fill="none" xmlns="http://www.w3.org/2000/svg">
<path d="M18.9294 9.10101C18.9656 10.767 20.281 11.9501 22.3206 11.9501C24.143 11.9501 25.4464 10.8757 25.4464 9.37877C25.4585 7.71268 24.0948 7.26603 22.6948 7.01261C21.3673 6.78324 20.4983 6.6021 20.4983 5.73284C20.4983 4.93616 21.1621 4.52564 22.1154 4.52564C23.1292 4.52564 23.8412 5.1052 23.9378 5.96221H25.3015C25.2292 4.44112 23.962 3.35474 22.1154 3.35474C20.3414 3.35474 19.1104 4.36869 19.1104 5.82946C19.1104 7.5075 20.438 7.95415 21.838 8.19562C23.1774 8.43709 24.0585 8.63017 24.0585 9.52362C24.0585 10.3324 23.3344 10.7791 22.3327 10.7791C21.15 10.7791 20.3656 10.1151 20.2931 9.12521L18.9294 9.10101Z" fill="white"/>
<path d="M26.813 10.1996C26.813 11.3223 27.32 11.8776 28.5027 11.8776H29.7576V10.7308H28.7682C28.2975 10.7308 28.1283 10.5496 28.1283 10.0668V6.84351H29.6129V5.69664H28.1283V3.97021H26.813V5.69664H25.7389V6.84351H26.813V10.1996Z" fill="white"/>
<path d="M35.0703 5.69669L34.9135 6.60209C34.5154 6.03463 33.8635 5.62427 32.8981 5.62427C31.2207 5.62427 29.9775 6.8797 29.9775 8.78711C29.9775 10.7669 31.2207 11.9501 32.8981 11.9501C33.8635 11.9501 34.5154 11.4914 34.9135 10.936L35.0583 11.8777H36.2049V5.69669H35.0703ZM33.1154 10.8515C32.0293 10.8515 31.3173 10.0064 31.3173 8.78711C31.3173 7.57991 32.0293 6.73484 33.1154 6.73484C34.2015 6.73484 34.9135 7.59201 34.9135 8.8113C34.9135 10.0064 34.2015 10.8515 33.1154 10.8515Z" fill="white"/>
<path d="M43.0543 9.65637H41.7268C41.57 10.3806 41.0148 10.8394 40.2061 10.8394C39.1562 10.8394 38.4682 9.99446 38.4682 8.77501C38.4682 7.56782 39.1562 6.73484 40.2061 6.73484C40.9907 6.73484 41.5456 7.19359 41.7148 7.89381H43.0543C42.8128 6.50547 41.7993 5.62427 40.2423 5.62427C38.3595 5.62427 37.1288 6.8797 37.1288 8.77501C37.1288 10.6824 38.3474 11.9501 40.2061 11.9501C41.7869 11.9501 42.8128 11.0687 43.0543 9.65637Z" fill="white"/>
<path d="M43.9786 3.42712V11.8777H45.282V10.2962L46.3801 9.13727L48.2146 11.8777H49.7595L47.3094 8.18348L49.6148 5.69667H48.1061L45.282 8.71465V3.42712H43.9786Z" fill="white"/>
<path d="M49.8872 9.8374C49.9234 11.1774 51.0456 11.95 52.6869 11.95C54.1715 11.95 55.2816 11.2015 55.2816 10.0184C55.2816 8.64215 54.1354 8.32826 52.7473 8.17131C51.8663 8.06275 51.275 8.01436 51.275 7.43496C51.275 6.94008 51.7819 6.62618 52.5422 6.62618C53.3027 6.62618 53.8455 7.03654 53.906 7.5919H55.1731C55.0887 6.32438 54.0267 5.62417 52.5181 5.62417C51.058 5.61207 50.0079 6.37261 50.0079 7.54367C50.0079 8.82329 51.1182 9.11299 52.506 9.28204C53.4474 9.40269 54.0026 9.46302 54.0026 10.115C54.0026 10.622 53.4595 10.9359 52.6749 10.9359C51.7819 10.9359 51.1906 10.4771 51.1422 9.8374H49.8872Z" fill="white"/>
<path d="M59.3184 3.42712V11.8777H60.7062V8.3043H64.0129V7.10904H60.7062V4.65836H64.713V3.42712H59.3184Z" fill="white"/>
<path d="M67.9961 11.9501C69.8787 11.9501 71.146 10.6824 71.146 8.78711C71.146 6.90389 69.8787 5.62427 67.9961 5.62427C66.1134 5.62427 64.846 6.90389 64.846 8.78711C64.846 10.6824 66.1134 11.9501 67.9961 11.9501ZM67.9961 10.8394C66.8979 10.8394 66.1859 9.98236 66.1859 8.78711C66.1859 7.59201 66.8979 6.73484 67.9961 6.73484C69.0941 6.73484 69.8185 7.59201 69.8185 8.78711C69.8185 9.98236 69.0941 10.8394 67.9961 10.8394Z" fill="white"/>
<path d="M76.3095 5.69666V8.76303C76.3095 10.0427 75.7062 10.8153 74.7162 10.8153C73.7629 10.8153 73.2801 10.1754 73.2801 8.96821V5.69666H71.9767V9.10097C71.9767 11.2378 73.0993 11.9501 74.4148 11.9501C75.3682 11.9501 75.9354 11.5637 76.3216 11.0929L76.4663 11.8776H77.613V5.69666H76.3095Z" fill="white"/>
<path d="M82.0349 5.62427C81.0336 5.62427 80.4422 6.02269 80.0561 6.50547L79.9111 5.69669H78.7768V11.8777H80.0801V8.76307C80.0801 7.50749 80.6955 6.74694 81.7334 6.74694C82.7109 6.74694 83.2057 7.37473 83.2057 8.54564V11.8777H84.5214V8.47321C84.5214 6.33643 83.3628 5.62427 82.0349 5.62427Z" fill="white"/>
<path d="M90.2807 3.42712V6.55383C89.8823 6.01056 89.2187 5.62424 88.2773 5.62424C86.5996 5.62424 85.3567 6.87967 85.3567 8.78708C85.3567 10.7669 86.5996 11.9501 88.2773 11.9501C89.2548 11.9501 89.8942 11.4913 90.2928 10.9481L90.4496 11.8777H91.584V3.42712H90.2807ZM88.4942 10.8514C87.4082 10.8514 86.6962 10.0064 86.6962 8.78708C86.6962 7.57988 87.4082 6.73482 88.4942 6.73482C89.5806 6.73482 90.2928 7.57988 90.2928 8.81127C90.2928 10.0064 89.5806 10.8514 88.4942 10.8514Z" fill="white"/>
<path d="M97.6007 5.69669L97.4436 6.60209C97.0455 6.03463 96.3936 5.62427 95.4282 5.62427C93.7508 5.62427 92.5076 6.8797 92.5076 8.78711C92.5076 10.7669 93.7508 11.9501 95.4282 11.9501C96.3936 11.9501 97.0455 11.4914 97.4436 10.936L97.5887 11.8777H98.735V5.69669H97.6007ZM95.6455 10.8515C94.5594 10.8515 93.8474 10.0064 93.8474 8.78711C93.8474 7.57991 94.5594 6.73484 95.6455 6.73484C96.7316 6.73484 97.4436 7.59201 97.4436 8.8113C97.4436 10.0064 96.7316 10.8515 95.6455 10.8515Z" fill="white"/>
<path d="M100.322 10.1996C100.322 11.3223 100.829 11.8776 102.011 11.8776H103.266V10.7308H102.277C101.806 10.7308 101.637 10.5496 101.637 10.0668V6.84351H103.122V5.69664H101.637V3.97021H100.322V5.69664H99.2476V6.84351H100.322V10.1996Z" fill="white"/>
<path d="M104.497 3.23389C104.05 3.23389 103.7 3.55988 103.7 4.01863C103.7 4.47737 104.05 4.80337 104.497 4.80337C104.944 4.80337 105.293 4.47737 105.293 4.01863C105.293 3.55988 104.944 3.23389 104.497 3.23389ZM103.845 5.69667V11.8777H105.149V5.69667H103.845Z" fill="white"/>
<path d="M109.226 11.9501C111.109 11.9501 112.376 10.6824 112.376 8.78711C112.376 6.90389 111.109 5.62427 109.226 5.62427C107.343 5.62427 106.076 6.90389 106.076 8.78711C106.076 10.6824 107.343 11.9501 109.226 11.9501ZM109.226 10.8394C108.128 10.8394 107.416 9.98236 107.416 8.78711C107.416 7.59201 108.128 6.73484 109.226 6.73484C110.325 6.73484 111.049 7.59201 111.049 8.78711C111.049 9.98236 110.325 10.8394 109.226 10.8394Z" fill="white"/>
<path d="M116.562 5.62427C115.56 5.62427 114.969 6.02269 114.583 6.50547L114.438 5.69669H113.303V11.8777H114.607V8.76307C114.607 7.50749 115.223 6.74694 116.26 6.74694C117.238 6.74694 117.733 7.37473 117.733 8.54564V11.8777H119.048V8.47321C119.048 6.33643 117.889 5.62427 116.562 5.62427Z" fill="white"/>
<path fill-rule="evenodd" clip-rule="evenodd" d="M7.47892 13.9602C11.072 13.9602 13.9848 11.0465 13.9848 7.45225C13.9848 3.85795 11.072 0.944336 7.47892 0.944336C3.88571 0.944336 0.97287 3.85795 0.97287 7.45225C0.97287 11.0465 3.88571 13.9602 7.47892 13.9602ZM10.7319 6.26381H8.78723L10.1528 4.19821H9.12036L7.47613 6.68999L5.83732 4.19821H4.80491L6.17061 6.26381H4.22597V7.06158H10.7319V6.26381ZM8.74893 8.61338L10.1311 10.7061H9.09849L7.47613 8.24722L5.85376 10.7061H4.82678L6.20891 8.61881H4.22597V7.82647H10.7319V8.61338H8.74893Z" fill="white"/>
</svg>
