<svg width="164" height="30" viewBox="0 0 164 30" fill="none" xmlns="http://www.w3.org/2000/svg">
<path d="M11.3405 29.48C8.88713 29.48 6.80713 29.0667 5.10047 28.24C3.3938 27.3867 1.94047 26.2933 0.740467 24.96L4.74047 20.92C6.6338 23.0533 8.96713 24.12 11.7405 24.12C13.2338 24.12 14.3405 23.8133 15.0605 23.2C15.7805 22.5867 16.1405 21.7733 16.1405 20.76C16.1405 19.9867 15.9271 19.3467 15.5005 18.84C15.0738 18.3067 14.2071 17.9467 12.9005 17.76L10.1405 17.4C7.18047 17.0267 5.00713 16.1333 3.62047 14.72C2.26047 13.3067 1.58047 11.4267 1.58047 9.08C1.58047 7.82667 1.82047 6.68 2.30047 5.64C2.78047 4.6 3.46047 3.70667 4.34047 2.96C5.24713 2.21333 6.34047 1.64 7.62047 1.24C8.92713 0.813332 10.4071 0.599998 12.0605 0.599998C14.1671 0.599998 16.0205 0.933331 17.6205 1.6C19.2205 2.26667 20.5938 3.24 21.7405 4.52L17.7005 8.6C17.0338 7.82667 16.2205 7.2 15.2605 6.72C14.3271 6.21333 13.1405 5.96 11.7005 5.96C10.3405 5.96 9.32713 6.2 8.66047 6.68C7.9938 7.16 7.66047 7.82667 7.66047 8.68C7.66047 9.64 7.9138 10.3333 8.42047 10.76C8.9538 11.1867 9.80713 11.4933 10.9805 11.68L13.7405 12.12C16.6205 12.5733 18.7538 13.4667 20.1405 14.8C21.5271 16.1067 22.2205 17.9733 22.2205 20.4C22.2205 21.7333 21.9805 22.96 21.5005 24.08C21.0205 25.2 20.3138 26.16 19.3805 26.96C18.4738 27.76 17.3405 28.3867 15.9805 28.84C14.6205 29.2667 13.0738 29.48 11.3405 29.48ZM39.7014 25.48H39.5014C39.3147 26.0133 39.0614 26.52 38.7414 27C38.4481 27.48 38.0614 27.9067 37.5814 28.28C37.1014 28.6533 36.5281 28.9467 35.8614 29.16C35.2214 29.3733 34.4747 29.48 33.6214 29.48C31.4614 29.48 29.8214 28.7733 28.7014 27.36C27.6081 25.92 27.0614 23.8667 27.0614 21.2V8H32.9814V20.68C32.9814 21.96 33.2081 22.9467 33.6614 23.64C34.1147 24.3333 34.8881 24.68 35.9814 24.68C36.4347 24.68 36.8881 24.6133 37.3414 24.48C37.7947 24.3467 38.1947 24.16 38.5414 23.92C38.8881 23.6533 39.1681 23.3333 39.3814 22.96C39.5947 22.5867 39.7014 22.1467 39.7014 21.64V8H45.6214V29H39.7014V25.48ZM59.9695 29.48C58.3962 29.48 56.9962 29.2267 55.7695 28.72C54.5429 28.1867 53.5162 27.4533 52.6895 26.52C51.8629 25.56 51.2362 24.4 50.8095 23.04C50.3829 21.68 50.1695 20.16 50.1695 18.48C50.1695 16.8 50.3829 15.2933 50.8095 13.96C51.2362 12.6 51.8629 11.44 52.6895 10.48C53.5162 9.52 54.5429 8.78667 55.7695 8.28C56.9962 7.77333 58.3962 7.52 59.9695 7.52C62.1029 7.52 63.8762 8 65.2895 8.96C66.7295 9.92 67.7562 11.2667 68.3695 13L63.5695 15.08C63.3829 14.28 62.9962 13.6 62.4095 13.04C61.8229 12.48 61.0095 12.2 59.9695 12.2C58.7695 12.2 57.8629 12.6 57.2495 13.4C56.6362 14.1733 56.3295 15.2267 56.3295 16.56V20.48C56.3295 21.8133 56.6362 22.8667 57.2495 23.64C57.8629 24.4133 58.7695 24.8 59.9695 24.8C61.0362 24.8 61.8762 24.52 62.4895 23.96C63.1295 23.3733 63.5962 22.6133 63.8895 21.68L68.4895 23.68C67.7962 25.68 66.7162 27.1467 65.2495 28.08C63.8095 29.0133 62.0495 29.48 59.9695 29.48ZM80.7983 29.48C79.2249 29.48 77.8249 29.2267 76.5983 28.72C75.3716 28.1867 74.3449 27.4533 73.5183 26.52C72.6916 25.56 72.0649 24.4 71.6383 23.04C71.2116 21.68 70.9983 20.16 70.9983 18.48C70.9983 16.8 71.2116 15.2933 71.6383 13.96C72.0649 12.6 72.6916 11.44 73.5183 10.48C74.3449 9.52 75.3716 8.78667 76.5983 8.28C77.8249 7.77333 79.2249 7.52 80.7983 7.52C82.9316 7.52 84.7049 8 86.1183 8.96C87.5583 9.92 88.5849 11.2667 89.1983 13L84.3983 15.08C84.2116 14.28 83.8249 13.6 83.2383 13.04C82.6516 12.48 81.8383 12.2 80.7983 12.2C79.5983 12.2 78.6916 12.6 78.0783 13.4C77.4649 14.1733 77.1583 15.2267 77.1583 16.56V20.48C77.1583 21.8133 77.4649 22.8667 78.0783 23.64C78.6916 24.4133 79.5983 24.8 80.7983 24.8C81.8649 24.8 82.7049 24.52 83.3183 23.96C83.9583 23.3733 84.4249 22.6133 84.7183 21.68L89.3183 23.68C88.6249 25.68 87.5449 27.1467 86.0783 28.08C84.6383 29.0133 82.8783 29.48 80.7983 29.48ZM101.907 29.48C100.307 29.48 98.8804 29.2267 97.627 28.72C96.3737 28.1867 95.307 27.4533 94.427 26.52C93.5737 25.56 92.9204 24.4 92.467 23.04C92.0404 21.68 91.827 20.16 91.827 18.48C91.827 16.8267 92.0404 15.3333 92.467 14C92.8937 12.64 93.5204 11.48 94.347 10.52C95.2004 9.56 96.2404 8.82667 97.467 8.32C98.6937 7.78667 100.094 7.52 101.667 7.52C103.4 7.52 104.88 7.81333 106.107 8.4C107.36 8.98667 108.374 9.77333 109.147 10.76C109.947 11.7467 110.52 12.8933 110.867 14.2C111.24 15.48 111.427 16.8267 111.427 18.24V20H97.947V20.32C97.947 21.7067 98.3204 22.8133 99.067 23.64C99.8137 24.44 100.987 24.84 102.587 24.84C103.814 24.84 104.814 24.6 105.587 24.12C106.36 23.6133 107.08 23.0133 107.747 22.32L110.707 26C109.774 27.0933 108.547 27.9467 107.027 28.56C105.534 29.1733 103.827 29.48 101.907 29.48ZM101.787 11.88C100.587 11.88 99.6404 12.28 98.947 13.08C98.2804 13.8533 97.947 14.8933 97.947 16.2V16.52H105.307V16.16C105.307 14.88 105.014 13.8533 104.427 13.08C103.867 12.28 102.987 11.88 101.787 11.88ZM123.088 29.48C121.061 29.48 119.355 29.16 117.968 28.52C116.581 27.8533 115.341 26.92 114.248 25.72L117.728 22.2C118.475 23.0267 119.301 23.68 120.208 24.16C121.115 24.64 122.141 24.88 123.288 24.88C124.461 24.88 125.275 24.7067 125.728 24.36C126.181 23.9867 126.408 23.4933 126.408 22.88C126.408 21.8933 125.701 21.3067 124.288 21.12L122.008 20.84C117.288 20.2533 114.928 18.0933 114.928 14.36C114.928 13.3467 115.115 12.4267 115.488 11.6C115.888 10.7467 116.435 10.0267 117.128 9.44C117.848 8.82667 118.701 8.36 119.688 8.04C120.701 7.69333 121.835 7.52 123.088 7.52C124.181 7.52 125.141 7.6 125.968 7.76C126.821 7.89333 127.568 8.10667 128.208 8.4C128.875 8.66667 129.475 9.01333 130.008 9.44C130.568 9.84 131.115 10.2933 131.648 10.8L128.248 14.28C127.581 13.6133 126.821 13.0933 125.968 12.72C125.141 12.32 124.288 12.12 123.408 12.12C122.395 12.12 121.675 12.28 121.248 12.6C120.821 12.92 120.608 13.3467 120.608 13.88C120.608 14.44 120.755 14.88 121.048 15.2C121.368 15.4933 121.955 15.7067 122.808 15.84L125.168 16.16C129.781 16.7733 132.088 18.88 132.088 22.48C132.088 23.4933 131.875 24.4267 131.448 25.28C131.021 26.1333 130.408 26.88 129.608 27.52C128.835 28.1333 127.888 28.6133 126.768 28.96C125.675 29.3067 124.448 29.48 123.088 29.48ZM143.331 29.48C141.304 29.48 139.597 29.16 138.211 28.52C136.824 27.8533 135.584 26.92 134.491 25.72L137.971 22.2C138.717 23.0267 139.544 23.68 140.451 24.16C141.357 24.64 142.384 24.88 143.531 24.88C144.704 24.88 145.517 24.7067 145.971 24.36C146.424 23.9867 146.651 23.4933 146.651 22.88C146.651 21.8933 145.944 21.3067 144.531 21.12L142.251 20.84C137.531 20.2533 135.171 18.0933 135.171 14.36C135.171 13.3467 135.357 12.4267 135.731 11.6C136.131 10.7467 136.677 10.0267 137.371 9.44C138.091 8.82667 138.944 8.36 139.931 8.04C140.944 7.69333 142.077 7.52 143.331 7.52C144.424 7.52 145.384 7.6 146.211 7.76C147.064 7.89333 147.811 8.10667 148.451 8.4C149.117 8.66667 149.717 9.01333 150.251 9.44C150.811 9.84 151.357 10.2933 151.891 10.8L148.491 14.28C147.824 13.6133 147.064 13.0933 146.211 12.72C145.384 12.32 144.531 12.12 143.651 12.12C142.637 12.12 141.917 12.28 141.491 12.6C141.064 12.92 140.851 13.3467 140.851 13.88C140.851 14.44 140.997 14.88 141.291 15.2C141.611 15.4933 142.197 15.7067 143.051 15.84L145.411 16.16C150.024 16.7733 152.331 18.88 152.331 22.48C152.331 23.4933 152.117 24.4267 151.691 25.28C151.264 26.1333 150.651 26.88 149.851 27.52C149.077 28.1333 148.131 28.6133 147.011 28.96C145.917 29.3067 144.691 29.48 143.331 29.48ZM159.167 20.2L157.287 8.84V1.08H163.527V8.84L161.687 20.2H159.167ZM160.367 29.48C159.087 29.48 158.167 29.1867 157.607 28.6C157.074 28.0133 156.807 27.2933 156.807 26.44V25.48C156.807 24.6267 157.074 23.9067 157.607 23.32C158.167 22.7333 159.087 22.44 160.367 22.44C161.647 22.44 162.554 22.7333 163.087 23.32C163.647 23.9067 163.927 24.6267 163.927 25.48V26.44C163.927 27.2933 163.647 28.0133 163.087 28.6C162.554 29.1867 161.647 29.48 160.367 29.48Z" fill="url(#paint0_radial)"/>
<defs>
<radialGradient id="paint0_radial" cx="0" cy="0" r="1" gradientUnits="userSpaceOnUse" gradientTransform="translate(-60.5067 -23.7797) rotate(9.93346) scale(290.503 121.163)">
<stop offset="0.286458" stop-color="#F26AB2"/>
<stop offset="0.7769" stop-color="#B64FC6"/>
<stop offset="1" stop-color="#A748CB"/>
</radialGradient>
</defs>
</svg>
