<svg width="312" height="180" viewBox="0 0 312 180" fill="none" xmlns="http://www.w3.org/2000/svg">
<rect x="230.359" y="83.3577" width="20.5128" height="20.438" transform="rotate(-180 230.359 83.3577)" fill="#FAF4FC"/>
<rect x="127.795" y="68.0292" width="20.5128" height="20.438" transform="rotate(-180 127.795 68.0292)" fill="#ADA6B5"/>
<rect x="153.436" y="108.905" width="20.5128" height="20.438" transform="rotate(-180 153.436 108.905)" fill="#D7D3DB"/>
<rect x="204.718" y="83.3577" width="20.5128" height="20.438" rx="10.219" transform="rotate(-180 204.718 83.3577)" fill="#D7D3DB"/>
<rect x="256" y="93.5767" width="20.5128" height="20.438" rx="10.219" transform="rotate(-180 256 93.5767)" fill="#E9D1F2"/>
<rect x="230.359" y="134.453" width="20.5128" height="20.438" rx="10.219" transform="rotate(-180 230.359 134.453)" fill="#FAF4FC"/>
<rect x="204.718" y="154.891" width="20.5128" height="20.438" rx="10.219" transform="rotate(-180 204.718 154.891)" fill="#FAF4FC"/>
<rect x="179.077" y="160" width="20.5128" height="20.438" rx="10.219" transform="rotate(-180 179.077 160)" fill="#D7D3DB"/>
<rect x="127.795" y="144.672" width="20.5128" height="20.438" rx="10.219" transform="rotate(-180 127.795 144.672)" fill="#E9D1F2"/>
<path fill-rule="evenodd" clip-rule="evenodd" d="M81.6411 147.737L102.154 147.737L102.154 86.4234L81.6411 86.4234L81.6411 147.737ZM168.821 134.453C174.465 134.453 179.077 129.877 179.077 124.234C179.077 118.59 174.465 114.015 168.821 114.015C163.177 114.015 158.564 118.59 158.564 124.234C158.564 129.877 163.177 134.453 168.821 134.453ZM76.5127 119.219C76.5127 124.863 71.9001 129.438 66.2563 129.438C60.6125 129.438 55.9999 124.863 55.9999 119.219C55.9999 113.575 60.6125 109 66.2563 109C71.9001 109 76.5127 113.575 76.5127 119.219ZM230.359 108.905L209.846 108.905L209.846 88.4673L230.359 88.4673L230.359 108.905ZM202.667 57.8102L182.154 57.8102L182.154 37.3723L202.667 37.3723L202.667 57.8102ZM117.539 93.5767C123.182 93.5767 127.795 89.0015 127.795 83.3577C127.795 77.7139 123.182 73.1388 117.539 73.1388C111.895 73.1388 107.282 77.7139 107.282 83.3577C107.282 89.0015 111.895 93.5767 117.539 93.5767ZM127.795 108.905C127.795 114.549 123.182 119.124 117.539 119.124C111.895 119.124 107.282 114.549 107.282 108.905C107.282 103.261 111.895 98.6861 117.539 98.6861C123.182 98.6861 127.795 103.261 127.795 108.905Z" fill="url(#paint0_radial)"/>
<rect x="153.436" y="86.4234" width="20.5128" height="20.438" rx="10.219" transform="rotate(-180 153.436 86.4234)" fill="#E9D1F2"/>
<rect x="204.718" y="129.343" width="20.5128" height="40.8759" transform="rotate(-180 204.718 129.343)" fill="#E9D1F2"/>
<rect x="153.436" y="60.876" width="20.5128" height="40.8759" transform="rotate(-180 153.436 60.876)" fill="#E9D1F2"/>
<rect x="179.077" y="108.905" width="20.5128" height="61.3139" transform="rotate(-180 179.077 108.905)" fill="#ADA6B5"/>
<rect x="153.436" y="154.891" width="20.5128" height="40.8759" transform="rotate(-180 153.436 154.891)" fill="#D7D3DB"/>
<rect x="102.154" y="81.3139" width="20.5128" height="40.8759" transform="rotate(-180 102.154 81.3139)" fill="#ADA6B5"/>
<defs>
<radialGradient id="paint0_radial" cx="0" cy="0" r="1" gradientUnits="userSpaceOnUse" gradientTransform="translate(292.118 179.421) rotate(-158.795) scale(318.549 263.676)">
<stop offset="0.286458" stop-color="#F26AB2"/>
<stop offset="0.7769" stop-color="#B64FC6"/>
<stop offset="1" stop-color="#A748CB"/>
</radialGradient>
</defs>
</svg>
