<svg width="16" height="16" viewBox="0 0 16 16" fill="none" xmlns="http://www.w3.org/2000/svg">
<path d="M10.6354 3.46896C9.83016 3.39576 9.12006 3.98873 9.04685 4.80132L8.86384 6.91699H10.9283V8.38112H8.73206L8.40996 12.0927C8.27086 13.7032 6.85066 14.8965 5.24012 14.7501C4.28111 14.6696 3.47584 14.1351 3 13.3811L4.0981 12.283C4.27379 12.8247 4.75695 13.242 5.36457 13.2933C6.16984 13.3665 6.87994 12.7735 6.95315 11.9609L7.26794 8.38112H5.07174V6.91699H7.39239L7.59004 4.66955C7.72914 3.05901 9.14934 1.86574 10.7599 2.01216C11.7189 2.09268 12.5242 2.62709 13 3.38112L11.9019 4.47921C11.7262 3.93749 11.243 3.52021 10.6354 3.46896Z" fill="#A748CB"/>
</svg>
