<?xml version="1.0" encoding="UTF-8"?>
<svg width="2907px" height="1079px" viewBox="0 0 2907 1079" version="1.1" xmlns="http://www.w3.org/2000/svg" xmlns:xlink="http://www.w3.org/1999/xlink">
    <!-- Generator: Sketch 58 (84663) - https://sketch.com -->
    <title>Artboard</title>
    <desc>Created with Sketch.</desc>
    <g id="Artboard" stroke="none" stroke-width="1" fill="none" fill-rule="evenodd">
        <g id="doodle-at-the-bottom" transform="translate(1453.000000, 784.000000) rotate(-6.000000) translate(-1453.000000, -784.000000) translate(-303.000000, 567.000000)">
            <path d="M75,247.096233 C331.478462,247.096233 455.692246,53.333979 828.333599,53.333979 C1200.97495,53.333979 1253.88082,281.735295 1533.36184,281.735295 C1812.84285,281.735295 1713.97877,131.449868 1806.6153,131.449868 C1899.25183,131.449868 1797.02392,391 2095.34061,391 C2393.65731,391 2329.49605,56.0979824 2451.17479,56.0979824 C2567.84511,56.0979824 2628.66423,218.951995 2765.01401,218.951995 C2901.36378,218.951995 2831.47305,0 3332.47268,0 C3446.43551,0 3493.00178,0 3472.17147,0" id="Path-2" stroke="#D5B3FF"></path>
            <path d="M76.0794674,268.096233 C-45.7875349,268.096233 -21.2461163,268.096233 149.703723,268.096233 C406.128483,268.096233 530.316258,74.333979 902.879586,74.333979 C1275.44291,74.333979 1328.33771,302.735295 1607.7602,302.735295 C1887.1827,302.735295 1788.33931,152.449868 1880.95645,152.449868 C1973.57358,152.449868 1871.36707,412 2169.62131,412 C2467.87554,412 2403.72772,77.0979824 2525.38097,77.0979824 C2642.02687,77.0979824 2702.83326,239.951995 2839.15448,239.951995 C2975.47571,239.951995 2905.59961,21 3406.49434,21 C3520.43331,21 3542.0875,21 3471.45691,21" id="Path-2" stroke="#B375FF" stroke-width="2"></path>
            <path d="M214,290.096233 C470.441246,290.096233 594.637006,96.333979 967.224286,96.333979 C1339.81157,96.333979 1392.70976,324.735295 1672.15022,324.735295 C1951.59068,324.735295 1852.74094,174.449868 1945.36403,174.449868 C2037.98712,174.449868 1935.77404,434 2234.04745,434 C2532.32086,434 2468.16891,99.0979824 2589.82999,99.0979824 C2706.48338,99.0979824 2767.29368,261.951995 2903.62367,261.951995 C3039.95366,261.951995 2970.07307,43 3471,43" id="Path-2" stroke="#000000"></path>
            <path d="M74.528821,290.096233 C-3.30824165,290.096233 43.2484242,290.096233 214.198818,290.096233 C470.62441,290.096233 594.812589,96.333979 967.377125,96.333979 C1339.94166,96.333979 1392.83663,324.735295 1672.26003,324.735295 C1951.68343,324.735295 1852.83972,174.449868 1945.45716,174.449868 C2038.07459,174.449868 1935.86776,434 2234.12296,434 C2532.37816,434 2468.23013,99.0979824 2589.88378,99.0979824 C2706.53005,99.0979824 2767.33664,261.951995 2903.6583,261.951995 C3039.97997,261.951995 2970.10365,43 3471,43" id="Path-2" stroke="#B375FF" stroke-width="7"></path>
        </g>
    </g>
</svg>