<svg width="240" height="240" viewBox="0 0 240 240" fill="none" xmlns="http://www.w3.org/2000/svg">
<rect width="240" height="240" fill="white"/>
<path fill-rule="evenodd" clip-rule="evenodd" d="M133.777 49C154.16 49 170.683 65.4698 170.683 85.7862C170.683 96.1453 166.387 105.504 159.474 112.19L159.079 111.917L159.486 112.213C171.248 120.011 179 133.342 179 148.478C179 172.515 159.451 192 135.337 192H78C75.7909 192 74 190.209 74 188V145.259L117.061 156.626C117.595 156.767 118.142 156.448 118.283 155.914C118.305 155.831 118.316 155.745 118.316 155.659V130.943C118.316 130.391 118.764 129.943 119.316 129.943C119.406 129.943 119.495 129.955 119.582 129.979L156.177 140.081C156.709 140.228 157.26 139.915 157.407 139.383C157.505 139.028 157.4 138.648 157.134 138.394L104.569 88.0995C104.169 87.7177 103.536 87.7317 103.155 88.1308C102.977 88.3169 102.877 88.5645 102.877 88.8221V101.966C102.877 102.518 102.429 102.966 101.877 102.966C101.695 102.966 101.515 102.916 101.359 102.821L74 86.254V53C74 50.7909 75.7909 49 78 49H133.777Z" fill="black"/>
</svg>
