<svg width="240" height="240" viewBox="0 0 240 240" fill="none" xmlns="http://www.w3.org/2000/svg">
<path fill-rule="evenodd" clip-rule="evenodd" d="M130.347 48C150.923 48 167.604 64.5849 167.604 85.0435C167.604 95.475 163.267 104.9 156.289 111.632L155.889 111.357L156.3 111.655C168.174 119.507 176 132.932 176 148.174C176 172.378 156.265 192 131.921 192H74.0381C71.8079 192 70 190.197 70 187.972V144.932L113.471 156.378C114.01 156.52 114.562 156.199 114.704 155.662C114.727 155.578 114.738 155.491 114.738 155.405V130.516C114.738 129.96 115.19 129.509 115.747 129.509C115.838 129.509 115.928 129.521 116.016 129.545L152.96 139.718C153.497 139.866 154.053 139.551 154.201 139.015C154.3 138.658 154.194 138.275 153.926 138.019L100.86 87.373C100.457 86.9885 99.8178 87.0026 99.4323 87.4044C99.2525 87.5918 99.1522 87.8412 99.1522 88.1006V101.336C99.1522 101.893 98.7002 102.343 98.1427 102.343C97.9583 102.343 97.7775 102.293 97.6198 102.198L70 85.5145V52.028C70 49.8034 71.8079 48 74.0381 48H130.347Z" fill="url(#paint0_radial)"/>
<defs>
<radialGradient id="paint0_radial" cx="0" cy="0" r="1" gradientUnits="userSpaceOnUse" gradientTransform="translate(32.4541 6.66081) rotate(39.7839) scale(234.944 283.58)">
<stop offset="0.286458" stop-color="#F26AB2"/>
<stop offset="0.7769" stop-color="#B64FC6"/>
<stop offset="1" stop-color="#A748CB"/>
</radialGradient>
</defs>
</svg>
